<mxfile host="Electron" modified="2023-10-24T17:25:23.325Z" agent="Mozilla/5.0 (Windows NT 10.0; Win64; x64) AppleWebKit/537.36 (KHTML, like Gecko) draw.io/22.0.2 Chrome/114.0.5735.289 Electron/25.8.4 Safari/537.36" etag="pdkLQi-Jdf8wyXJa8uL9" version="22.0.2" type="device">
  <diagram name="Page-1" id="dOFY2RHq0GwZCSzpNI1i">
    <mxGraphModel dx="2662" dy="917" grid="1" gridSize="10" guides="1" tooltips="1" connect="1" arrows="1" fold="1" page="1" pageScale="1" pageWidth="1100" pageHeight="850" math="0" shadow="0">
      <root>
        <mxCell id="0" />
        <mxCell id="1" parent="0" />
        <mxCell id="F7NxVQR-bwVQOGqpfLus-4" value="" style="shape=image;aspect=fixed;image=data:image/PNG,iVBORw0KGgoAAAANSUhEUgAABu0AAAGZCAYAAACNPHyvAAAAAXNSR0IArs4c6QAAAARnQU1BAACxjwv8YQUAAAAJcEhZcwAAEnQAABJ0Ad5mH3gAAP+lSURBVHhe7N0JmBTF3QbweMXrS8xhIkEFBUVdTwzmQqOfKCYGTfAIqHhHoiREuRTlWHABJeIZVIIB4oGKeKDRVQOimygb43p8iUci8UiMgIjcsJz7fv3vY6a6+t8zPbMzs7M7bz3P75Htrq6urq6Z3enX7vlcu3btQEREREREREREREREREQth6EdERERERERERERERERUQtjaEdERERERERERERERETUwhjaEREREREREREREREREbUwhnZERERERERERERERERELYyhHREREREREREREREREVELY2hHRERERERERERERERE1MIY2hEREREREVFZO/LII/HDH/4Qffr0wTnnnENERERERCUmf4vL3+Tyt7n2NzsVBkM7IiIiIiIiKkv7778/TjnlFJx++un4/ve/j27duqGqqoqIiIiIiEpM/haXv8nPOOMM9290+Vtd+xuemoehHREREREREZUduQgg/zdvz549cfDBB6sXDoiIiIiIqLQOOeQQ9290+VudwV3hMbQjIiIiIiKisiP/9+6JJ56oXiggIiIiIqKWJcGd/M2u/S1P+WNoR0RERERERGVFvidDHonJO+yIiIiIiMqT3HEnj8rkd9wVVlFDu70POAwnTX4Zh1w4Dt/Yh7dJEhERERERUXbyBffHHnusenGAiKgYjjjiCFxxxRWYNm0aHnroITz88MOYOXMmJk2ahFNPPVXdhoiIqNIdd9xx7t/u2t/0lJ+ihXYdDvsuul83F92vfRyn/2GN6+Bzq9G+04FqfSIiIiIiIiIh349x1FFHqRcGiIgKrUePHrjjjjvckK66utq9a0CCugsuuACTJ0/GAw884AZ62rZERESVTP5ml7/dtb/pKT9FCe32+daJ+M6EuZ6xf8BPnliDnzzu8P+7z/dPV7cjIiIiIiIiW2d07qwtb7vOOecc9aIAEVGhycXGW2+91Q3tTjrpJLXOwIEDce+99+LSSy9V1xMREVUy+dtd+5ue8lPw0K7T90/DUePnesb9EUeNeQKnzFkToW1LREREREREps44bfxjWFA3DZd31daXVvfu3dGrVy/sv39xv/6AoR0Rlcrll1+O3//+9/jJT36irg+MHj0ad911l/sYMG09ERFRpWJoV1gFDe32+8EF6Hrts+ha80fvv2L0HJz82BrHav+/Hm37UvjWt76F2tpa9/nk8vPPf/5z1NXVuf+165az4Dhuv/320M/BcbUmpToHMjYyRjJW2vrWpjWfc2r7ijU/R4wY4b5ftJZnZbe2/hIRUbnxA7uGBXhs/GnorNYprcMPPzz12LhiBncM7YioFA455BDcdttt7iMxtfUm+R8WZsyYkfluu0um4U8NDWgwPT8NF2t1c1KDR6StR2qUdQWmHUPKI6iROuMeSf+7UPz9/umui/X12fjbPzJd/vsnTLskZv04bblSPzHv3ETaLWM1jzjnsiDzkojIw9CusBKHdt/ochgOu+0tHDDkfnxjv4PD69q3xwGnD8JhY58NG/MM9j+nGj94dE2EuX2hyUVi+w+L4KKpfSG5HEI7Cd7s/tbX12fsU3Ac5RDaST+lv2b/g34lUapzIGMjYyRjpa0vB8FYyoV+bb0sD+ZGS57z5tLmjIg77lKR9wiZi3a/cpnPLSWYD3bfA6UOjoo1P4sdgsm5jnufkH3n+h5S7P4SEVFb1hknVc8qq8AuEAR3cldKsYI7hnZEVApy19yUKVMSPfZSAr7f/OY3GD58uLre5QZA4TCr/AISCZkShlTK8bgKENpdfNefChhCXoxpzwfBmffvSPjn9tk5F/Y+ZXmzzk/rC+3C40VE1HwM7QorcWjXZcQTOPiWtxxvuv9t/80T3eXt9+qAA/qNwcHVtY6nfc+4/+1w/NlunRMfWYMTH17t/Nfh/rf4oV3SC8WlCowyyXSROE5wQTxTmJBPu7kyQ6Rgmfx70qRJoXqZFPocJBmbchX0PW7+5jK3y5X0354zQuZSS5+zILSTvgTLpJ/S39Y2n9rCXNEUOwTL9L4p+871PbXY/SUioraqfAO7QLGDO4Z2RFQK8nf6tGnTcPHFye7uktDu2muvVde51JArh5CsJNpgaCf9NII3Nyi12pZlf3re2acV0Gl1c9MaQztHs8NKIqI0hnaFlTi0a3/USTjw5jdD9uo1EAdcPAkHXjkbB474Aw4cVZvS/pDvpLY9fvbqCLPtQsvlYnWhA6N85BOuJQmm8mk3VzLOzQ0zCn0OkoxNOZN+axf5tUCptSnFnGyOuDGWfre2ACyX98HWhKEdERFVguNGlndgFyhmcMfQjohK4Xvf+557p13Gu+d8cleefKfdFVdcoa53xYZ29l1gNe5/G8zwzN1WlvlCgYpy95hVP/pYSW+/ofaCu81SsgRv2UK7UB+i9dxALLLeO5b08qDvdvhl1csQMEkAGDr+SKjoB5XjpL9mYBm94yzcZzuMC/oYjK3sw+63vy7V36CuLxUQBtuFj9M+j+H+KGGrPW+MAFIf/4DsP2F4S0SUBUO7wsrpO+2+cVh37Hfj37G/Q/7ruv6v2P/KR7Df0FnY7+onsM+516Fdh06h7Y59aHWEub7QMl2stgMdLTAKLtwHv9iKHTIkCTKkf+bjBH/3u9+FjsM8ruDfQd1iHoOMc5K2pV9mf8xQJN9zIG2YbUqdq666KvLYxWCMtHlh98teH1xwl/+a7Zr9L7S44CjoS3Dx3zznQZ1M42Yff7C9uUy2nzdvXuhcFErccWUidYNjsY+nGOL6aI+djLn5s7DncfBzcN6CYzDPVzHZfRaZ5oe5jQj6GsyT4D0n2FaOy27PHLdgu+B4zZ+D9oXdB7tN+bcsC9YH42kuKyTpn92ngOxbW2cej30Xqd3fYHxledw2RERU2VpLYBcIgrvevXsXNLhjaEdEpSLfZyfBnQR42vqAPELz7rvvxplnnqmud2khl7ssCEeCgMYKS9yQKbzMDVxSwY+3XSrQCbUp9ODIDIBq7grayiGs0Y5HBOGf1b9IYGT87N5ZZwRv0Tvtwsdgb5/uvy0avEWOMXUcVl3t3Jh9ctdHxzUaCAZ17Da8n9Pnwfn5rmBd0Fb0PKbrOz9nGMNo/9LtZxv/oG/hcSMiyg9Du8LKKbRzHXAk9r3hb46/h42oRftjzlC3OXrW6gitXqEEF0W1dfaFZPtCe3DB2Lz4LG3FXcQthEwXiYX0TS7q2n2SP5C0C+JBnWztFkIwXpkuotv9sI8nn3MgbZoXumW5hAryX2GPRdCGOS/k32a/g+3M/QQX1u19ZzreQrD7qi2zjzPbuMlys9/BeTCX2XUKKde27XMs5HiK1T8h7Ur75hjKv+1+SN/s8yPrZdugXtz42m0Viz1ftGMz50fws8x3s04wz8x+y/HbYZP9urDnZ/Cz2X7Qp6COkEfrmuNj91G2NfdTaNIXc38m2be9zh5nqWOOi93fYIzNbWSfpZoXRERU7kZglvN7Qn5X5G4WRqht5ubEE0/EWWedlRfZVmszHwztiKhU5G5hCePGjRvnfm+dVuekk05yrzlkfDSmiIRceogTCob8ZfYdVl6AEw6UgjoSyNj1zRAsGoiZzHaziByPTwkZQ3e3qduF95sktIuOiUbGxj6e8HjFjo30OQiyzP4bwv30+hjuV7rfblCWOBjT2vL3F2rDYI1r7BglGH+RfIyJiDJjaFdYuYd2nQ9Gh0Gz0OG6BnT49d/QYaLD/2+7npeo23zvwdX47gOr8F3/v/KzVq9QgouipuACqX0hWS6SygVV88KzeTFVq1Nosk+7v+aFYemP3Sf7OOyfhfzbvsBcLMGY2xfT5d/anVvmMeV6DoIL/cGFf5s2FiLTPgP2cvsCvMi2/0KwL/Rr42gfZ5JxM9sI5oe9zG6jUOSY7Pko+5XxDeZ9sO+4MS722AftB/0x+2TKNtbBz3JsZl/j5mYxSP/MPibps6y3z5HW52CctGXB8drbBT/bfZD19j5N0p60K+1rPxea9Mc8/zazrzJu8vox+2Ift93fpGNMRESVqjPO+81c53fOAjx2/Xk46Ycn5aA7DlLbzE3nzp3VD+JxDjvsMPz4xz/GT3/6Uxx11FFqm/lgaEdEpSLvXTfddJP7t7r8VwK6YJ2EeOeffz5+//vf49Zbb3XrmttGuGFJ+DNEOBTRArpwWGXX9Zab23n/NveR4oY92j5M0fAmVsbQzlpuLnP/rfTPERxnttAu3Yay/xD9eNLhlzmODmnXD8XM0Co2LDPq6+fKW6Z9X55w25XjiKzT2nKE9ueIzKlgPGK2FwnGXzC0I6JCYWhXWLmFdgd2w55DH8Oev7rfU/MX7Hn9/4V845LfYo+99wlt9+0HVkeY6wtN/tCyLwwH7Iuj2kVr7ZdaMe+CyHTROuiveeHfXB4ch3bRN1O7xRKMX9BfGTMzlDEF5yjXcyDsC+UmbSyEtBvsU/qnjU2wbdB/+4K7kH/LMvucFJK9D62/9nFmGzetvrQr/5Vl9rEXmrRrj6XJPD+ZznHQX3t5IWjjLmNoj4nsP+hrQPos28p/tZ+FfQ6KyRzP4Gd7bgjzvc3eRmh91l4D9jJ7u7hjl59luaw3l5l9lHaDuSDtmz8XmtafgOzbXCc/m/00Bcdp91cb40zLiYioEnXGeXdIcFeH+4Yep6wvH/vssw9+9KMfFTywEwztiKgUJJSTO+zkTjt5/KX8HS9/l8+cORP33XcfHnjgAZc8QjNrYCfiQq4ULVDTQ6dsoV182GKFVBFx+1M0K7TLNA4JQjuznnzOCtU1yfEqx5Pqu328wc/hcYr2xxcK0bQ+esvc0C7DuLp34Um91HnTj9fcn3fsRpuh82EflyHB+AuGdkRUKAztCitxaLfHYceg3ZDHsceQOWg36BHs8cv78LVj+uIbAx9Auwn/hz0mvBH679cP/m5q224zV+GbDvlvwGy70DJd/LQvHNsX1mW7YF2pZLpIHPQ3uBBuLw/6av8sMrVbTOZ+ZVwzBWwi13OQrU1tLIQ5L+yL74Fg22C87QvuQv4ty+xzUmhmf7UxsY9Tq2OT9bKNPL5I/ivHEozFoEGDsp6r5rDPs8083kznOMlx5ks7t8GYmXNFlgV9DdjHpx1v3NwsBnM8g5+z7dfeRmh91sbJXmZvF3fs8nMwvkEbwc+yXtqTZcFcsH8uNLM/9jrZt923uLoBu7/aGGdaTkRElSoI7hZg1sjyDO6KGdgJhnZEVApDhw51A7qf/exnqWXHHXccBgwYgMGDB6Nv377JwrpAXqFdXAhnhjLhOm4AFBtiZVufIeyx5Rvaudtl3kfS0C69Lq69cPiW5rf3iBm6CX8sneWhY4sJusL91PqYXuaFbMp4BSKhW7Tf6f0pxxXaPm7eBPWyneO4cSMiyh1Du8JKHNp97fxb8LVBc3yPeSGerNtzb3z9vJvwtfFvRB13vlun632rIsy2Cy3TxU+5uCoXWYMLx/aF9UwXbIsl0z6D/trHE1zcDo7DPi7REscizIvUQT9lmVZX5HoOsrWpjYUw54W9z4C93L7gLpIcUyFIHyS46t+/v/tfu6/2cSY530Gb8r1hwVjI8ch25rJiMc9BpnVxY1zssdfaD5aZ80kba9nGvGtN/ivbmectbm4Wgz3WSeaHvY3Q+pxpnIJl9nZxx272S7aVNqStYL29TKtTSJnGSfZtrtPOsc3urzbG9tgRERF5yje4K3ZgJxjaEVGxSVAngZ0Ed9r6vMSFXCkxQYsbGIVDlnDwZm3n7scKXJw2Uj8r62vuynS3WIy448kW2jnc/tth2SPpn91wKrTe7Fe4brYQStrSwiu3D06bdoDphWv2cm+MQ8si+80c2snP3j6DcXDWme2FxsjbLjSO1v60ORCqH5k3Tp27vPrZxt/bf/yYEhHlgqFdYSW/067TQfjy5Y/hq2dPxB77HmCt/wZ27z0cX655Peza1/CVs67HYfeuwmH3OOS/vvD2haVdFA3YF47ti67yX7nwbl5Ylguqd911V+rnQst0kVjIhVz5Y8K8oCvHJ8uCftrHFWxXzIvbQsbFbD/ohzn+8m+7HxIQmWOe6zmQdWZAIvuVL4UOxlCbA/Yyu19a37UxlH/LsmJfYDf7Y/bJXh+MU5JxC7Yx55O5zNy2GIKxk/3Jfs119nHa5zioo21bKHHnVn42+xKMdVAv2M6uI8vM/tvnrJjs8Qz6nGl+2NsIrc/aONnL7O3ijl1+Ds6pPWZBm0L+LcukffPnQjP7Y6+TfZvrgmOy65vvi3Z/ZXzt15osK+YxERFRa1Z+wV0Q2J155pno1q2bWqcQGNoRUTH16dPH/Z46eeylPCJTq5OXuJArxQte1Luj3ABGQhmfEiiFtrPrhwIah9sXY73RXiq0ythXR9zxWAGdviwImdK0sEuWe8elhV+BLOGS9NM+fuGPUXi/Dn9soufB7rO933Af9WVBG7Kt3Z45PsF26XEQcWPktjdOOR/WPEgfU5bxl+20MSMiygNDu8LK7Tvtsti9Z398cezraWNexRev+TMOuWdVhLZ9oWgXngPBRdbggql2YT24uB38UjMvxBeD9MX8JRowL+rKhV9znTxz3TwO+7jMZVLfvqhcKMEFaJPZh7h65vnJ9xzY42bu19w+WK7NC7tfdt+1gED+LctknVm3GIJj1PalnfOk42YfkyzT6hZLcFwmu09aPfv8FVrcuQ3G2nwdmX0LtpH/BmMo/zV/NtuRbYNlxaLNd+lLpvmhbaP1WRsne5m9Xdyxy8+ZxlUCfvlvMDeCcbbnSqHY/THJvu11wXEFfRbmMdr9DcZYmMdZrOMhIqK24CD8bMpcNCyYhWFdtfWldcIJJxQ9sBMM7YioWM444wz3O+zkukpBA7ui8gKYSPhEvtY4PloAWCqcT0RUWAztCqugoZ34avczseuY17BrtWjArsPrcNDvV+JAg/ysbUtERNSWacEoERFRdgfhoEO05aXXoUMH7L///uq6QmJoR0TF0KNHD/fJGLfeemtu31XX0rQ72yjMv3uu9QRRLRfaRR+dSUTUPAztCqvgoZ34atee2Gn0a9hpVAN2uvIFdJmxMmSPY36qbkdERNSWMbQjIiJKRh5dJ3fzaRcFiIjy9ZOf/AQ33HCDG95p68tN+jGW/O6xtqcl77QjIioc+Ztd/nbX/qan/BQltBO7H/Qd7HDNy9h+0Fx0nr4SnaetxDfOGo899j1QrU9ERNTWMbQjIiJKRh4dfcwxx6gXBoiIiIiIqDzI3+z82pfCKlpoJ3bvdAi+dMkMfOOcidhj705qHSIiokrB0I6IiCiZI488EqeffjoOPvhg9eIAERERERG1LPlbXf5ml7/dtb/pKT9FDe2IiIiIiIiI8nHKKafgxBNPVC8QEBERERFRy5K/1eVvdu1vecofQzsiIiIiIiIqO/vvv7/7/Rg9e/bEIYccol4oICIiIiKi0pI77ORvdPlbXf5m1/6Wp/wxtCMiIiIiIqKyJBcB5P/elcfufP/733e/6F67cEBERERERMV11FFHuX+Ty9/m8jc6A7viYGhHREREREREZU2+J0O+4F7+b95zzjmHiIiIiIhKTP4Wl7/J+R12xcXQjoiIiIiIiIiIiIiIiKiFMbQjIiIiIiIiIiIiIiIiamEM7YiIiIiIiIiIiIiIiIhaGEM7IiIiIiIiIiIiIiIiohbG0I6IiIiIiIiIiIiIiIiohTG0IyIiIiIiIiIiIiIiImphDO2IiIiIiIiIiIiIiIiIWtjnDj74YBARERERERERERERERFRy6mIO+3kQLXlRETlxn1jHv4mEVUg/r1CRERERERERFTZGNoREZUReb/q2LEjEVUg/r1CRERERERERFTZGNoREZURhnZElYt/rxARERERERERVTaGdkREZYShHVHl4t8rRERERERERESVjaEdEVEZYWhHVLn49woRERERERERUWVjaEdEVEYY2hFVLv69QkRERERERERU2RjaERGVEYZ2RJWLf68QEREREREREVU2hnZERGWEoR1R5eLfK0RERERERERElY2hHRFRGWFoR1S5+PcKEREREREREVFlY2hHRFRGGNoRVS7+vUJEREREREREVNkY2hERlRGGdkSVi3+vEBERERERERFVNoZ2RERlhKEdUeXi3ytERERERERERJWNoR0RURlhaEdUufj3ChERERERERFRZWNoR0RURhjaEVUu/r1CRERERERERFTZGNoRldxJGDFlFmY90DxTrj5JaTsHPxyBKaE278NtvzguUq9z586RZVQ8DO2IKhf/XiEiIiIiIiIiqmzFC+327oa+V07AhAlJVWPgyVV6W83Ei2BUXvpiyvwGNCxYgAUv5unlBtTd0VdpOwdnTMJTRpsNDU6f5k9BX6veZdPr0DB3Fsb0OSi0vHk646jjT8JJP2ye47q1vUCxeKHdGRh0/URcn82Y/jha3Z6Iio1/rxARERERERERVbbihHbtu+YY2AWKE9zxIhiVl9Nw2zMNaHjmNpzXWVufWed+k/DUggbMveU0dX3OOp+HSU/Fh3YH9boMEx6oc9YvwFM3nofO1vr8+MGl7LMZmh1clqHihXY1ePydt/FmNi/fjfPV7duAa1/CKgALH1LWlYEH/+V07l8Pquty5h+rlFULxul1KE8XYFT1BcpyU5I6Ufx7hYiIiIiIiIioshUntDusL4ZLCHdpD319SA8MkLpjq1E9rjjBXSkvgo14KBoszBrprBs5y/l3HaacrdSXoMRdH91WuNufPQV19rogYAnWPTQi1Lboe0edtXwEZoXamYUR/jrpSyQEUfbr9seo4x1z9Ni8fYWXu/0x2koUuvh9iK/rB0BK4BQ37up4KuNXNMcNw311zj7nTsHPDlHWx+jc7zbMlbvs7huG45T1uTvOOX8L0LBgFsb8+jF9DF2dcVL1LCxoWOCc/+gjNKlwihfaFYERDJmlfEOiB7HQ6V/pQ7txeCkyUKvw0rXROoXpm3ecLXoe3LlhH6NQxmLVSxgXqhPH29Y8LjfojJSFeDC0na9A8/XKuUtlK7w5Iy6UuwB3vyV7Wor5w7X18RjaERERERERERFVtvIJ7Yb3RbduznZFCO5KHdrFhUtuuGUGQ25wlA7NAtGgzRFTN7Vufp2zPhpOhdpy27DqjJyS+jnSdz9IDId0fuhn9M/dztl/NPQKh3aR45ew7Q57G0Xq+GKOPwg8I4GThHl1mPWQs60aRprteceVKEQslOMuw7S5EtxNw2XHKestx/1iGuY6fZw7/bICBXbt0PmK+7CgYS6m9OvsjWNsaCc647w75qJhwX24PI87BCmZ4oV2R+D43qfiVMtJR1cpdRN6yI3A9IAkq2gA03ZFw8JxCyTUMUKt2JArM7cdO/Rq1nkpEK0P7rLoOfeCtyTHbo+jPoe8sY0uL9y4BKHcKrw6xQ7uLsDU17x18aFePIZ2RERERERERESVraxCu0Odn/csQnBXLqFdEAx5IZh3d5hWN6/Qzlk3RbazQpdQW1lCmXDfzb7aomFc3R1TlPpmPe949fay8MPGOnV7v92HlGNzwz5nmTZ2yjJ13IvtkJ9hijwqs+4+DMsQ3B039D6nvw2YO+VnOEhZn5+jMGZOAxbcN8x75GWvyzDmqvNwVKSeofNlmFbXgMeuPUpfn9hJGDFlFmY90DxTrj5Jabt1K15opz8e8+U8goVA8x7nKAFM7iFVq+SGRfaxWoFTnoGSnAM1tEp891pxuHPD7IN/l1vcnYSJ5lJkHDPMIWU8mzdfbelwLh3cactyw9COiIiIiIiIiKiylU9oN2oAep/UEz0dJ583FDWybEI1+h/XUdkmN+UT2vnBkARJGQK0fEO7EUoQGGrLrRe9Gy8Q6nsOAV/q3+4db2Yfo+FebCgW2dYQHJ/WJ1kXM55y7F4flcBQGc8WCe1E8J1yL87CmJ6dI+uPc45tgQR2vynU98kF5PwswH1XaOviXTbd6esDzR2n0zDpDwuw4MXmeerG5n+vX+dux+GkYw6KrjukO076YXclJD0I3X94HI4q0t2GxQvtCi3znXLRgMSrL0HO67IuVIxwxXqEYah94240t32/hPvg3Y2VKkZwpIU2wV1ZQbFDpdQ2oX6ZYZC3v7hxEHqIFh6/THXCxd+3G0qFy8I3wmMnJdUva1zVcXCWpcbDXy/H77Zh7i/YVlvmsueGfxzWPkOUkM0WGaOM2yS7K6950iHdSzdegBvcscs/sBMM7YiIiIiIiIiIKlv5hHYxhvc5VNkmN6UO7ULfkxYJorwASf8OOE98aBduOxWwmQGU++9025G23HDM2V4J5MwgLluAZa63A7z0duHQLn3syh1zSUI7JXxL7TsS2kndDONgh3bWuJVc59MwYY58t9xjmNA7CO4647Txj7nfI/fUjYUO7BzuMc/FbWco6zI46canMga6rcq3x+Ax9/VUh2kXmet6YdJT3lx96sZexvJ2+NldzlySbZ6ahJOM5YXSekI7OxSxGAGb/GwHZmpI5YdAqTatNoKQZqHTVlDHC5mC4MYOZpw+pvbprTP76wV/Rujjtm/sL2jvXwuxKtVXO6TLHtppYWEQogX9SYVj1npzWWTM7PFxKefFHlelz+7+VzmthY7DHzPn+FP99/e58F/OCmtZuh9WH6xjVUXGPirRHErRz1PGPuTlZD+sk+L0/8aTlTrJMbQjIiIiIiIiIqpszQvtOnVFD//uuJDTBqBaQrdEoV0XfEdr47yhrTa0S4VpqgzBlS8+tMsWank/m9vHhW/ucqcPZl8LEdqFgzo7tAvIchmDmOOxGccX6pd53HZoZ/9sj5/7s3ceXOUQQnU+CZP+YI6lN1fm3nJa4QM74Y5B7qHdab+Z2wLj1RmdQ3e22T/nqaJCO/3xmBEv343z1e0tfhATLuHQJQiitHAlElIpQZIdtHgBnRW8+EGeF7xlCGbsYCm0XUAJ/WSHob7bdbLR6vvtpgIou9/aNsoyOQY7tMoWoPnC58Tujy84x+by2GXGPhONtSVrnejx2yFemHXcQb9DJTxf88PQjoiIiIiIiIiICif/0K59V/S9MnpnXEii0C7GCQPcNtpaaJcKnSJ3hil1zOV26JRxnReKSSiYOXxL15OfQ33P0D9h1rWP2d2nu21caGfX09enhI4v3Wbo2Kz+Sp9SgZwh1c9Qm144lum8lUp4LKN3FhaWjGXuj8e8/L4FGeZUUkkfj/kUJp3RDqfdOBcNC5zz5X7vX2ecd4f387Cudru5q5zHYx6B43ufilOzOfloVKnbh2W+y8nnBjGSZdj1lCApEtr4QZKxrRbS2P1w6zglEtxZ7euBjxUM2eGTSw/BYqlhkbV9opArul/1GGRbc7zVtqxxU4/ToW2bYJl9TtyflT6Yss6nSB+znAerftb288LHYxIRERERERERUWHlHdode4kEc9UYcJpyl1xOd9rFaIuhnRsUBSFWfFDU/NDOISGWs2xKxtAuU/iWKXALr4sec3BsUzKGdhmPyWTVk/GJtB0K7WL6btax9+3+nKGvJVLa0O4ojJnTgAX3DUt+J1/nYbhvQQMeu/YofX1iR+G8q8ZgTHU2w3Det536h/wMU+Y2oGHuNEy446niPTK0DBQvtCuszHc5ebywBtYdYw4lJArqmiW8nR7SSD8i7bshklOM/oVDG+1ONhHehxr0uH3PHECFxIRmIVlCr3Qdc8z0Y3C3jT3utND5i+mjtm2SZZG5kXUMvHGPng+D3UZc0Ohz+5CpT82WDuzSIZ22LDcM7YiIiIiIiIiIKlveoV2PSyW0G46+hynrc/pOuxhtLrRTQrqYoKggoZ1D+uLeYWbcjRYOgCTcirnTzq8f/e49bxuznnrMbp9k/8H2zvE/FL6rLnSnnR8yJjq+oG1zjMxAzvx3iBHmKWMW6o+7Pn3s7lga45j40Z45Co9lsUO7duh8xX1YIMfZL/gevUyCO9zuw+VFussso0N+hmnOeMicfmz8SW0ysBPFC+0yPx7z8fHaNnHiQi9DELJoIZcS4sSFSylqSJPhbqtQfbu/GQIvo19a0JO1n5Yk9e39RLfx+hteph179LjU/btjk97WraMEWtIve4zilqW318Y2cyjnbp9ljCLHkSkIdNdlDzjzdwHufktGUAvn0sHdmzNyD+4Y2hERERERERERVTaGdgWWCsoMEsK4y5UgSVseH9qF200FR0oA5fECtlRbShtmIBQOjHxZthHqdg73OOzgy2zLPO5cQjuHtBXqRyqoU8JRg9sHGQ91zLxt0+vbfmjXrt1xzj4XuI+aHNMzU3DXGSdVz3LvcJs18jhlfbF1xmnjH3P3v+BF51zU3Ydh7qMy257ihXZnYND1E3F9jEFnaNvEsEKfiFBokl+QJB78lxG8SJvqNsZ+/hUX6sT0wQx93Prm/r1t7GMMBVSRcMjmtaEFYqZw6OWw2pVxWGW3Ezr2gBLkRcbVq5M5ZEvXCx9/fFCYWqb2yxEZX+GPj3keVNE+6kFf0J61H2VuNceVc5c6rWUK5YJQbynmD9fWx2NoR0RERERERERU2RjaEZWR0od2js7nYdJTC9Dwch1mXX8Zeh0SXt+523kY84AEsIV8JKUfkJohrsoLTk+q9gI7NzAMHpX54n0F+U67clO80K6A/AAmUv71oB+GWQGJW98IZvwQRUooLLLajYQ0dvgVatcPo1IlHBy520sx2kgtc4sVNKnhkxUeuftXAqoULeSKCsbMDKHMvsn20eNPB1Sp7bIEZkEJB3QxfdTaSrLMPtcmt264hPsSx+6jcex2seeIsI4/VbS6iVyAUdXZ7qJLUieKf68QEREREREREVU2hnZEZcS9o+9luZvMI8FV0UM710Hoe+0s1L3shWXB/hcs8MOz+bMwps9Bynb56oyjjj8JJ/0wm+NwlDyK85Cf4fJfGHf4yc8D2+YjMltFaEflScKpyN1n1Jrw7xUiIiIiIiIiosrG0I6ojPS6dAzGVIdd1kuvWxwHofv5lzv7nYRpd01y/jsCl/U+qs1+f1w5YmhH+VLvRqRWhX+vEBERERERERFVNoZ2RERlhKEd5Sf6vW/U+vDvFSIiIiIiIiKiysbQjoiojDC0I6pc/HuFiIiIiIiIiKiyMbQjIiojDO2IKhf/XiEiIiIiIiIiqmwM7YiIyghDO6LKxb9XiIiIiIiIiIgqG0M7IqIywtCOqHLx7xUiIiIiIiIiospWnNDu4DO80G7I+eh5Us/8nDfUC+3OqIq2nyNeBCOi1oKhHVHl4t8rRERERERERESVrTihnaPq5IGoluCuOa7si67t9fZzwYtgRNRaMLQjqlz8e4WIiIiIiIiIqLIVLbQTVd2VO+hSemPAKGljKM5X1/dA1056u7niRTAiai0Y2hFVLv69QkRERERERERU2Yoa2mV2KPoOlzYGoIe6vnB4EYyIWguGdkSVi3+vEBERERERERFVNoZ2RERlhKEdUeXi3ytERERERERERJWNoR0RURlhaEdUufj3ChERERERERFRZWNoR0RURhjaEVUu/r1CRERERERERFTZGNoREZURhnZElUte/0REREREREREVLnyDu26/HAgqidI6NY81Zf2QCel/UKSA9WWExGVG3m/0i7mE1HbZ/6BRkRERERERERElSfv0E5Undy84K760p7o0l5vu5DkQLXlRETlRt6vtIv5RERERERERERERNS2NSu0ay0Y2hFRa8HQjoiIiIiIiIiIiKgyMbQjIiojDO2IiIiIiIiIiIiIKhNDOyKiMsLQjoiIiIiIiIiIiKgyMbQjIiojDO2IiIiIiIiIiIiIKhNDOyKiMsLQjoiIiIiIiIiIiKgyMbQroA4dOuCoo47C0UcfTUQVSF7/8j6gvT8kxdCOiIiIiIiIiIiIqDIxtCsguWD/rW99C127diWiCiSvf3kf0N4fkmJoR0RERERERERERFSZGNoVkNxpo13IJ6LKIe8D2vtDUgztiIiIiIiIiIiIiCoTQ7sCYmhHRAztiIiIiIiIiIiIiCgfDO0KiKEdETG0IyIiIiIiIiIiIqJ8MLQrIIZ2RMTQjoiIiIiIiIiIiIjywdCugBjaERFDOyIiIiIiIiIiIiLKB0O7AmJoR0QM7YiIiIiIiIiIiIgoHwztCoihHRExtCMiIiIiIiIiIiKifDC0KyCGdkTE0I6IiIiIiIiIiIiI8sHQroAKGdoNGzYMf/7zn93/autz8aMf/QjPPvssGhoa8Oijj6p1ik2Oo76+HhMmTFDXE7UVDO2IiIiIiIiIiIiIKB8M7QqoXEM7CepaKqwLMLSjSsHQjoiIiIiIiIiIiIjywdCugFo6tJs2bZp7R53cWRcsC+6yk3VmXSIqDoZ2RERERERERERERJQPhnYFxNCOiBjaEREREREREREREVE+GNoVUNLQLnhcpTwqUr5nTsijI82ATgvtJHgL6osgiDO/sy4gP9fU1LjtmsuDx1P269fPbT9Ybu8/aPPee+9NtS3bBv26/fbbU23Lz9KeeTzBsqA97Xi0fvPxmdTaMbQjIiIiIiIiIiIionwwtCugXEI7CajM75mTAM4MzuyQSwKwe+65J1Vflkt9M+RKeqddsK25LAjcgvaC7ewwL9g22I8ZvNnLzOOT7ezjkZ/tOna/iFobhnZERERERERERERElA+GdgWUS2gXBFzBsiDoCgIrO+Sy2fWF/Dtbu0L2b4Zl2vJgO7ue1i8J+uxwT5ZJveBuO3s7ra+ZlhO1FgztiIiIiIiIiIiIiCgfDO0KKJfQLltopoVjwd1pwaMkRa6hXfCzeYdeQJYF29vbBbR+2QGdtszeTo7TbjuoN3/+/FBbRK0JQzsiIiIiIiIiIiIiygdDuwIqZmgnAZf2+Eoz+JJ/B6FbsMyuF/zM0I6oOBjaEREREREREREREVE+GNoVUHNCOwmpJNQKwjQz5NICNG2Z/DsI3TLV0/ZvLy92aKf1NdNyotaCoR0RUVSXTh1wRJe98b2D90SPw9rj9KPaYfDxu+PmH38JM/v+D56+YBf89bId8d4VO+DTq7bDmmu2xdbRnwOqPfJvWSbrpI7UlW1kW2lD2pI2pW3Zh+xL9qn1hYiIiIiIiIioXDG0K6BcQjv70ZayLFPIZQZqQra129DCMy18kzblO+jsbc3vpSt2aCfL5WfzmGSd9EG2DZYRtTYM7YiIOmK/fTvgB12/gUHH747bfrIbHum3K17qv5MbuK26ettUGFdo0rbsQ/Yl+5R9Sx+kL9Inra9EREREREREROWCoV0B5XqnnQi+m84OveJCrqD+vffeGwnVgqBN1gd3q2UK3yQgi9t/sUM7YR+TGRoStVYM7YioUnXapyN+dszX8Ni5u7p3xK0fsQ02jdoGTcYdc6Um+5Y+SF+WOX2Svkkfpa/aMRARERERERERtSSGdgWUa2inrSOi1o2hHRFVgn0c3zxgL/eRlKN/8BX88aJd3MdXasFZOZK+Sp+l73IM3zxwL/eYtGMlIiIiIiIiIioVhnYFxNCOiBjaEVFb1nnfDujdrR3uOuOLePWyHfHZVdupoVhrIsfw6oAd3WOSY5Nj1I6diIiIiIiIiKjYGNoVEEM7ImJoR0Rtzb77dETVfh1w4dFfd4O6rYV43OWYbYGxOwA1OwLjdgHG/w8w4QuO3YCJuwM37wPctj9w5+Ee+bcsk3VSR+rKNrKttCFtSZvavnIgxyYBnhyrHLMcuzYmRERERERERETFUNrQrn1HdD2+L/oPGonqsRPc7z1z1VRj5KABOKfXd9Blb2W7ZmJoR0SlwtCOiNqKLp064LSj2uHWn+yGf16+A5qUkCsRCdMmfg248whg5o+AJ/oDz1cDr0wB/vE48NFfgGX/BNYsBjatB9DkiCvOOqkjdZf9w9tW2pC2pE1pW/Yh+5J95hnkybHKMd/mHLuMgYyFNkZERK3J/vvvj0MOOQSHH344jjjiiDZFjkmOTY5RO3YiIiIiotaiRKHdnjj0pP4YPs4I6uKMG47+Jx2KPdV28lNuoR0RtV0M7YioLfhxt3Z45oJdsPTK7dCUz511Y7cHph0NzB8N/OtZ4NN/AKv+CzSuALZu9gO4IhRpW/Yh+5J9/uuPXh+mO32RPml9zUDCOxkDGQsZE22sqDj6TalDQ0ODrw5Tz9PrtaSqHw3G5Fm1qKsP+ul4uRY3n6XXJ2pJBx54oBp2tUVyrNoYEBERERG1BsUP7dpX4eQB1alQbuQvz0HPb1ehY3uz3p7odGR39L5kOGr8YK/6it7oGqqTP4Z2RFQqDO2IqLU6oFMHnPrNb+CJ83ZVA6xYcjfb9V8GbusCPHQm8Lf7gcZVfopWRkX6JH2TPkpfpc853oknYyNjJGOljWHFO28q6lJBW4yX61E/vxazp4zGRd9zPhNo7TjKO7SrQp/r5qDePK6y7WvpjJ6d5zhUdcdFQ2/GjEdrUfdivdGGo74edbVzMOPXA9H7SGXbPCXqa5L57Kh3+jzv8dmYcctgXHT84dF2YoT7kMD8qeintJOE3H2mhVttGe+4IyIiIqLWqsihXSf0uNQP7EYNwCmH7qnUsXQ5Fhdf4991d2XfggR3DO2IqFQY2hFRa9Npn47o8+098Ei/XfHpVdupYZVKvk9u+jHeYykXPuM9srK1FOmr9Fn6Pv373rFox6hY5oyRjJWMmYydNqYVK2HIkVaP2ikD0VNpq5xDu6qhM2MCO8HQLvk4HI5+42dj3svmdpnIfBmMXlVaW7kpZGgXMW8OJg/qhSq7PUspQzt5bKQWbLVlcszaWBARERERlbuihnaHnjHcD9/OwXc66XVU7bui75X+HXcXdtfr5IChHRGVCkM7ImpN5I6xGT/9AtaN2EYNqFTjdvK+O27pW973yzVt9ZOwVlik73IMcixyTHJs2jErZMzu7vMF3nVnyjPkqJ89OhLclTS0O/I4706vx+ehftZovU5Kd9Q8Hu5/3f2j0SfDXYOVIqfQrqoPJj5q3VWX1LNTcWkz77oramjnq7v/6owBYylDu7b4HXbZyDFrY0FEREREVO6KF9p1OhkD5VGX44ai90HK+mw69cCAagnuRuKcbsr6HJQqtDvqqKPwrW99S72QT0Rtn7z+5X1Ae39IiqEdEZXCofvvjStP+Cr+PTjh97xdtxswrTvw0g3e98W11SLHJscoxyrHrI2FRcbwqhO/6o6pNtYVxQ45Hp+IXqf2MlyEwb+eijnzjTquesyu7h5qq3Sh3WjMNvsyO1toZ9V/cQYGFuDOr7YgeWjX06mrB3bzHp+Jqb+uQc21wn9kpnYn3rypuKgZ455XaBeZz30wcFQNJk6ZiTnzjHqG+sdr0Ntu12f3YcYgs23FD7pnvXsvjhZqVQJtLIiIiIiIyl3RQrtuZ49075Qb3udQdX0SnU4e6LZRc/Gx6vqkShXadejQwb1gL3faEFHlkde/vA9o7w9JMbQjomLax3HGt9rhz5fshPVJ7q679vPAw2cD7z4JrPvUT7YqoMixyjHLscsYaGNjkLF80RlTGVsZY23sK4IdcsQFYFW9UGOHNs9ODoUbrSa0e7Qm7yClrUkW2lXhoinzjHqe+kcnol/c3XPOfBk8LbpN3e8H5j32eYV2WebG4b0HY8azRn3fvCkXqf1MHnI2nxZoVQJtLIiIiIiIyl2RQrtD0Xe43CU3ECd31NYn1P5YXDxW7tYbgB7N+G67UoV2RETNxdCOiIpl/04dUHPyl7H2mm3V4CmkZifg7uO9x0ZWepExkLGQMdHGyiBjK2PcpVIfmZlLyHHiRNSadRtqcfOp6fWtJrTLWr9yJAqhTr/ZOu/eYyS17zUM08K+/OdFMUI7lxZIy9w+PVq3VYR2l83An0LH0oA/Tfu5XjeDCY+F22hoeBQTlHpJ/HzanxL3QxsLIiIiIqJyV5zQrktvDJXvshvSG1209TnoOcB7RGbfI/T1STC0I6LWgqEdERXavvt0xE+6tcMfL9oFTaP1sCll/P8AD54G/ONxYHOjn1qxuGMhYyJjI2OkjZ1PxnjuRTu7Yy5jr52TNiunkKMfpoYekxkOLRjatT5JQqhLp5nn1ZHTYy57YuKTxraO+vuvzutuu6KFdqJqMGbWG9s56qZdGqnXKkI7mx/iPXqdsi4Hboj3wgz8XFkXy9/3n6bNwKPufxnaEREREVHbVJzQ7oi+GCmh3aU99PU5OLTPcPcRmQNO0NcnwdCOiFoLhnZEVGjy3XUfD90eTUrAFHJbF+Ddp4ANq/ykiiVSZGxkjCYfqI+hT8Zaxly+6047J21WS4R2R/bGwPFTMbu2DvVWUFI/vxazp4xWHrto7zsD9xiS16+b0s/al6hC9wtHY+q9czDvResurBfrUDtrKkZfmPn7ysIBz2yMluVVfVBzr/Gdb8/ejD6Z6nc8HP1GTcWceUYf6uswZ9rV6GMFZ4efU4OZMqbG98nVz5uDyYN6xfYzewhlh1n1mHlVlVUni/4zwnNMji2P77Yramjn6H2bdVdg3QxcatVplaHdET/HjBfyu9su5LpHnWPO5W472e+fMOMy+fcEhnZERERE1KYVJ7Q7YYAbtDG0IyLKDUM7IiqUIw/YC/f0+YIaKoVMag/MHw1s2eAnUyxZi4yVjJmMnTamBjkH33TOhXaO2pycQo6Lmh3aXXrbPNSn6mRQX4ubLzTDoRKGdkdeislP2o9L1NU/eXPsXWeREK7KGb955jLH/KnoF1u/DyY+mqEfdTNx9YmybRUuuj36/XGmebfn+R1tv5wRPl8vzsBAc30iAzHjRaONhnrM+KVWL7Nih3Ydj8n8+FfR0qGd95jJIAhLy3gXnBu2RbfJjRf8NTw2QVmXBEM7IiIiImrbihPaHdYXwwsU2nXrV83QjogqBkM7IiqEE49oj+d/tjM2j9pGDZJc8h1ts/sC/3kJ2LrZT6NYEpetW7yxe/isjN93J+fgBedc9HTOiXau2pRcQo7TJ2OeWTd1N5gnSWgXDj0cL9aj3mUtF3UzMDAViJUotDtxNGZrfckk5nGRdgg3w37MpIgN7eZg5v3Zg8N651j7VM9OEIQmOR/ROt2vqzXWy6MtB4fWJzV6lrmfBtTe0kutl0miwKw5oV0klI6Gi4n6UCBaoKWHX96y0OMvre+1y/fRmKHvtcv10ZghDO2IiIiIqG0rTmjX8WQMlNBu1Dnopq1PrAt6D5HvtBuOMw7W1ifD0I6IWguGdkTUXOd8dw+suWbbzI/DrNkReG06v7euEEXGUMZSxlQba4ecCzkn/Zxzo52zNiNpyFHVBzfXGvUc9neTJQ7tXp6H2b8eiN7WIzCrfjQYM6w70eaM7x6q4ynWd9r1jhxjw4u1mDq0D7r7oVzV9/pg4K9npx9v6av7/cDInWzhgKfeexSoc+wzgvaO7I3B142OeTym79kZGNz7cH/fFyl33vntOv+tnTLYH9PDcdzPJmKO/ehRJXDLFkKFz2nco0SzK0Q7iQKzZoV23SPfvze7OlxHPUexmhfqaYGWcO+2MwO0rI+t9AKz/O+S88Td5ZcMQzsiIiIiatuKE9qlwraROKebtj6hg3pjqIR/I5sX/jG0I6LWgqEdEeVr3306YtDxu+OTK7dTgyOXBEt39wAWv+4nTiwFKzKmMrYZwjs5N3KO5Fxp57DVyxJyVH2vJy6S71SL3LVWi5tPN9pxJAntBo+fqHxfncF6HKN+Z1dxQruqq2aG71ibNxWXxvS16sKp1l2Hc1BzTLhONOCZh6mhR35mqV8/E4Mjd/DpdxDWTY0+/jJyPMZdfYFsQZjdJzvESqp1hHbZjzdyjjIqTmgX3EXn3T2X8Pvqcv4+Ok1zvhuPoR0RERERtW1FCu3aoeMPB3rfa/erk9FJWZ9E9wu9R2MOPa1KXZ8UQzsiai0Y2hFRPvbv1AG/6b0bVg7fVg2LXGO3A54fC6xZ4qdMLAUvMrYyxjLW2jlwyDma7JyrLs45085lq2aHHInUY3Z1z0hbSUK77JIEbMUI7aoiodCMX8YHbOJS63GXtdeF7wq0Ax77zkSbXX/ebb3Ver1uCT+yUsK9q5XHc3bsOBgzQ3fbhR9nKuxjZmhnbOsoy9DO4T62Uu6ccwO87He/Re7Oy4sXvOX3qE2GdkRERETUthUttGvXvhvOGSl3203AwJM76XUy6HTCAFRL6Dd2AHp01OskxdCOiFoLhnZElCsJf+48/YvYOloPiVC9DXDDHsB78/xkqUBFHgu5YSWw7J/A8vedf68GtmzyV5ZxcfrY5PR162fvY+un/0RT40o0bSrwY0Lff84bcxl75ZzIuZJz1uaCu1xDu5frMPOaXmr4lFtoV4XuP+iDgaNqMHHKTMx+tBZ18t121mMnG+ZNTj0+Mq0YoZ0VcL04AwMjdSxZ7goMBzz1mDnU2FaRKJQS1bONeo5Ha2LCQPuuvNxDu4G/Dz+Oc97tfULrk2odoV0fTLYezzp7VLiO3YcZg3qh16lxeqYeq5oPLdBKccO6RzFDwrhsj73078yLBmbenXNyLEnCNO/77aJ363mPzXTWZQwFGdoRERERUdtWvNBOHNEXw8dJcFeNASd20eso9uxmbHdC7oGfjaEdEbUWDO2IKBcH77c3ppz+RTSO1MMh17Sjgf+8BKDJC5SaWzatBd64G7inJzB+V28fY5z937gX8ER/4L8v+xXLr2z6z1+x8uFLsWTsXvh4yDb4ePDnsGj4rlg25USsf+VuNG10jq0gxRlrGXMZe/t8+OScybmTc6id21YpaWhXV4vZU0ZnfLRlotDuyH6oubc28p1wsZRHOhYltDtmImqz1bFV1WBOhm3CAU8tbj7V2FYRrh8N2FKsc5YpAMvWZrYgrM/t84z1cY8rzW70LHM/+d2xl62vrmaFdvadifMw+axwnUR9KBAt0EoLAjflLjv3UZhmP+PuxMsU2qXXpcSEg5lCOy/oU2QI+LSxICIiIiIqd8UN7Tr1wIBq7247MfySnuia6a659l3Qvc8gVLuB3QQMPaOrXi9HDO2IqLVgaEdESVXttzceO3dXbB6VIbCbdTqw+mMvRCpEkVDrqV8A43bW9zdmW+DGPQt/V18ByoZ35/lh3bZuWGdbdNXOWPnILwob3K1e5JyDM/Sxcsi5e9Q5h3IutXPc6tghx+MTQ3cL9fxe5kdEmrKGdieOxuwXjX0Z6l+sx7zHZ2P2vXPC/SlVaJdX2JO53cQhnC9x/RKGdh1HWXf1qecjm4GYETrv0TAsiUSBWXNCO+vOSe1uy0R9KBAt0KoE2lgQEREREZW74oV2nXqg/ygvfKu+YgAGBeHduBqMHNQffXv1RM/jv4NDu3RB12N6ovfZAzG8JqgzEv1PbN732JkY2hFRa8HQjoiSkMcqyl1asYHd2B2Ax3/mPb6ykKVhKlCzk75P03W7AUv+z9+o5cumRf+HxdfspoZ1pkVX7oR19c4xFrJsWOWdCzknyljJOZRz2SYeldmsO5PCMod23VHzuLGfhnrUThuNi44/3KgjrCCsVKHdqTcX+U67VhraHWMdo1NnRn+rTjb9Z4TnWJJHjyoSBWZ5z+cqXH1/+FGgddMujdRL1IcC0QKtSqCNBRERERFRuStOaNe+K/pe6Qd2vzwZVe2dZXsfih5nD8RI/y461bgaDL/kFHTrYrXXTAztiKi1YGhHRNm432F3WoZHYl77eeC5EUDjcj81KlDZtA64pbO+T5s8LvPJAcDmDf7GLVeanD6sfGRA6nGY2XwyvjOaNjrHWsjSuMI7J3JulPGScynntNUHd6UK7axQbN5tvUPbprVQaKfs96JIHYv9nXa/HxhanziE8yWuX8rQLhK2OmpvRu9QnUx6YuKT4e21MCyJRIFZnvO56kJrO7kb8PRovUR9KBAt0KoE2lgQEREREZW7IoR2ndDj0movhLuyL7pKYGeub+98kPl2D5zS53z0v6S/5+ze6HlMV3Ta26pbIHIR/HPD3yQiKnsM7Ygok077dMTk3rth6+ho8OOSUOilScDWLX5aVMDy5kP6PuPceTiw6iN/45YrW1Z+hKWTDlcDujjr/2+2v3UBi5wTOTcxwZ2cUzm3co61c98qlCq0sx6zGPudZvYjCksW2vXCzbVGHaf/M36Z+dGgl04zj1eOKVw/cQjnS1y/pKGdw75TzjFvykWosutFVOGiKeHvxJPv9pt4olY3u0R9zWM+V/2oBrND32XnjOnvB6rHl6gPBXL44YeroVZbJsesjQURERERUbkreGjXtc9wL7CrHoAenfQ6pRaEdtt/9zwiorLF0I6Ishl8/O5YefW2aujjhkEvjAU2rfdTogKXPw7T9xvn118Hlv3T37jlyual/8Ti0V9Xw7k4q/7gHGsxipwbOUcxwZ2cWznH2rlvFUoV2lWHQ7va67qHtvX0toIzR5LQTq1jShbydR8/J11HzJuKi6qi9YTcmTXPrFs/E4OtuolDOF/i+qUO7TpWYbD16EhRd/9o9D5Sq++o6oXB0+zArgHzbo/vazaJ+prTfD4c/cbPRt3LRn2R4bwnG6/COOSQQ9Rgqy2TY9bGgoiIiIio3BU0tOty4gBUu4+5HI6+R+h1WgJDOyJqDRjaEVEmZ39nD3xy5XZq2JO6w65YgZ2U2l/q+45z/VeAT9/xN265svmTd7B45FfUcC7OykedYy1WkXOU4Y47OcdyrrU5UPZKFdqdNdkKueZg4jnpu2qqvncpJtdGg6FEoV1DPWaP743DZd2Rl2Lq7fYxJLwzr+oiTJ1n1BMv1mLq0D7oHoQ4Rx6HiyJBTz3mXNsz0l7iEM6XuH7JQzuHNjbi5TrUPjoDN19bgxrXzZjxaG00CHPUO+PeU2s7oUR9tefz4xPR69Rehosw2OnnzdPmYJ7Sx4a6mbg6w52Adh9mDDLb1h0XF2xmsf/++6vBVlsmx6yNBRERERFRuStYaNfphPIM7ARDOyJqDRjaEVGcnoe3x5prYu6wG7s98NzI4jwS0ywLbtL3H+eWTsDy9/2NW65sWfY+lozrpIZzcda84BxrMYucKzlncu6UsZNz3fOI9upcKGulCu20u+hEfT3qjUcT1s+aHfruOz20U75nzRQ5hoShnaPqpxMxx3pUYjZ191+thlGJQzhf4votEdoJCUSfNesnVz+rBr1i7l5LKlFf7fmcg/onJ+PSLAFbuA/JxD4KNoEDDzxQDbfaIjlWbQyIiIiIiFqDwoR2R/TF8HETMGFCNQac0Emv04IY2hFRa8DQjog0Rx6wF57/2c5oUsId1xP9gcYVfhpUxCIB3Phd9T5o7v8xsGGlv3HLla2NK/HZ9B+r4Zxm0fBdseWzEoSNcs7k3CljJ+f6Beecf9M599qcKFslC+3kkZI3ozZTIPbsZFxUlezRl5HHU5qaEdqJqh9djZnzjfqx6lF726XeHX6KxCGcL3H9lgrtXD0xcMoc9U461cvzMHt8v9gxykWivuYT2tXNwdRBvRJ8R5/dh2SaE9oJuftMHhvZFr/jTo5Jjo132BERERFRa9f80K5TDwyolsBuAob36arXaWEM7YioNWBoR0Sae/t+AZtHbaOGO3igN7BhlZ8ClaDEhEwR8ujH/7vX2aDJ264lS1MT1jfci0XDPq+GdLaVD13ib1iCIufu4bPUMZRzLudemxNlq4ShnevESzHx3lrUmXfXza/FzFSwkyy0E1U/vRpTH52HeiNActuq7m3VzS208xyO3r+ciBmPO+1bQaPsY/aU0bjoe1XKdmmJQzhf4votGtr5juyNgeOnYnZtXWR8Gl6sx7zHZ+DmoRelHytaAIn6miS0k7s7583BzCk1GPjT7onCukC4D8k0N7QjIiIiIqLy17zQrn1X9L3SC+yqL+mBTlqdMsDQjohaA4Z2RGTad5+OuPKEr6qBDqq3AaZ1B1Z/7Kc/JSrL/gnc9R2lP4aanYDHLwa2bvY3KoPi9GXFgxdj0VU7qUFd4NNbv4PNS51jLGVZs8g5l0c7Y6cHszIHZC5oc4SIiIiIiIiI2pb8Q7v2XdH7imovsLu0fAM7wdCOiFoDhnZEZPpJt3b4eKj+nWf49deAf7/opz4lLp/8HXj4bGDcLtF+XbsDMO8aYPMGv3L5lCanT6ueugaLhu0QCesWDd8Fy+87G5sW/c2vXeIi51LOqT2ejkVDt0NvZy5oc4SIiIiIiIiI2pa8Q7uufYa7gd2EK/uia3u9TrlgaEdErQFDOyIKdOnUAXMvivkeuzHbAgufQYs+enLLRmDJ34Dnx3h3/KX6to3/WMzyLPKYzI+HbJMK6z6dfDRWPzMGmxf9DU1yTC1WnHMp51TOrXmuHTIH5jlzQeaENleIiIiIiIiIqO1oxp12XXDs2eegRydlXZlhaEdErQFDOyIS+zhqTv6yHtjV7OgFZeVUFr8GjN813ccnSvidcDmWFQ9dYtxdtys2/fd1f02ZFDm38nhR85w7ZC7InJC5oc0ZIiIiIiIiImobmveddq0EQzsiag0Y2hGROONb7bD2mugdV657egJrP/ETnjIpq/4L3HlEuo+3dfFXlF/55LouqdBu6Y1HYMtKp+/lVOTcyjk2z7lP5sSZztzQ5gwRERERERERtQ0M7YiIygRDOyI6dP+98edLondaueQuO3kkZbmVTeuA2WeF+/rZv/yV5VO2LPtXKrATy+89C00bnb6XW1nyd+9cm+Pp+3P/ndw5os0dIiIiIiIiImr9GNoREZUJhnZEdOUJX8X6EdtEAxt5ZOLr0/1UpwzLn68DxmyX7u+fxvsryqesmTc+HdoN2c752elzuRY518pjMmVuyBzR5g4RERERERERtX4M7YroS0efjd6n/i9uvqAKCy7/GpZevRO2VG/rkn/LMlkndb509FlqG0RUORjaEVW2Azt3wL8Hbx8Jalyz+wKbG/1EpwzLe3PDIdOdh/sryqcsvfHwVGi36KqdsOGfTp/Ltci5fti6e9Enc0TmijaHiIiIiIiIiKh1Y2hXBO2O7YPhZ30TG6t3ACZXAU9eBrz7FLBmiX8lxinyb1km65w6Ule2kW21Nomo7WNoR1S5Ou3TEb//6RfUkAaT2gP/ftH/A6JMy7plwPVfTfd5/P8Ay9/zV7Z82bzsPSy6+n9Sod3ikV/F1rVOn8u5/Ocl79ybc8Enc0XmjDaXiIiIiIiIiKj1YmhXQJ//3rn48anHY8uY7YEpXYF1S/2rLgmK1HW2kW2lDWlL2wdRW9Nt3FzUvrcSKzb6rwWnNK5ZiddfeBznnqlv01YxtCOqXD/99h5Ypz0WUzxfDWzd7L9DlnG5v1e6z9d+Hnhzlr+i5cv612dh0ZWfT4V2n/3O6Wu5l61bvHNvzgWfzBWZM9pcIiIiIiIiIqLWi6FdAd19SWdslf/LfPHrAJq8Cy45FWcbZ1tpQ9rS9kHU6t36FlaseQvDvnsjbnpjJbBlHd559QWMGjbKrzMKp9z0OB59bx2wcSlqpwbL2z6GdkSV6YBOHfBwv13VcAa/OdB5nzT+r4ZyLv93n9H3bYA/DnP+tMnn76ECF6cPq/4wDB8P2SYV2q1/1elrayhy7mUOmHPCJ3NG5o42p4iIiIiIiIiodWJoVyBPDtgLmH5M+BGYH78C3NoZeH6MvyBaVj87Bp9M6IyN/3HqBkXacNqSNrV9FdYLeMff7YpXH1DW50mCGb9dYB3m36rUocrkh3b3v7rOmXQLcdMwpY6v29S3sHiLM38mD1HXtzUM7Ygq0ynf/AaWXbVdNJiRR0z+80n/d2krKOuXA+N2Tvd/5o+AxvRfA26Ru8fkUZqfLfT+Tnp/PvCPOcBr04A/TwTmDgee+iUw50Lg0XOBR/phxf3nYsWDF2Plw5dh1eODsOqpq7HmuYlY9/I0NL45BxsWzscm5++ozZ8uxFZpW/ZhlK3rV+Cz3/0oFdgtumpnp95n/tpWUN515sD46KNTZc7I3NHmFBERERERERG1TgztmkkeYyl3xbmB3XrrAtBzo70LK7/7nr8gWj697XvuBaTVTzt1zSJtOW1K2/k+KnP6h35bdnHvcgrqFSG0CwV2UsogtHvy4wx9eQDz1/irUyVhn7V2U8uU8uELGdqwSxmMWzEE82Pjx5huBnapO/CMZY79HvgQjbJceVRmZI6b4xuah86+jO3M9QUNq5uJoR1RZXrivJi77B48Ddiwynsbay1lWvd0/29x/j5a/r7zd8di4B+PA/Odv3VmneHUcf5muv0Q4Ma9gAlfBMYqgaUhCNtUQ7fDomu+iCVj98Invz4Yn04+BsvvPsP9u6rxzcexdfVibPnsfXwyvnNqm09/4/SxNRWZAzIXlLGRuaPNKSIiIiIiIiJqnRjaNZN8/5z7SEzzDrugbNnk/V/ir97lL4iWdX+5C8vvPw9NUtcuTpvStuxD23c2saGdW4IQI//QLmjf3m6Y3EHlljIKneJCu0wBmxQtZDPlGtr55Z0ntTbs0kZDu7Gv4APzJoggqIsJ7bb/7vW4/yPggz9eby335mBoLFNkXqfHz52TRtvu3HV+nu/8l6EdEbWkH3drp4YxqNnJuwOttZV516SPYcy2wM37hI8rD6GQLg9Lxu2Dj4dsm/p5da3Tx9ZWJPSUOaGMz0+cOaTNLSKiJC6++GJ1OVGAc4SIiIiotBjaNUO7Y/tgy5jt/e+wiynrPgWeHuT/0ARs2YCmzfLdNN53vKyaMwhb1zp14orTtuxD9qX1IZNUaGeEFelALQg78g3t4rdL70O5u6mlaOFa7J1Y4Tvv9FDIlzG0C4du5tiH9hdTv+LEhnbnYT8Zo/fsAFXOU8yYSf1Q4BoO8QLyGgnNX3dOfIz5VvAcF0SHzmm2gDcBhnZElWX/Th3w9AW7qEEM7u4BbG7032BaQVn7CfDPPwAP9dGPpxnMAK4Qlt/TB41v/QFb1zh9bi1F5oLMCWV8ZA7JXNLmGBFRNgxkKBvOESIiIqLSYmjXDMPP+iYwpSuCAE4tG9cA078P3PtDYNwuaBr9OSwa7Bi+C5ZN/SGWTf4+mjZEns1oFKdtZx+yL60PmWihnRlUeWGFEr6FwqygaCFTuLzzpPaYSaeY+1e2DYVixr7feTLomxeUhI4n1Ee/b6G2rcAwtS4duqTaU8Icc1xC/bcp7arLfNHQNHP9iiLnNG6sZd2KtzAwtNyab8a2Ms7hMNmrawewemiXXhacr9DPwX7kvGWaG3lgaEdUWXof1Q5Lr1QeDXnt54Glb7nvP2Vf5H9OemEMcMdhwHW7Of3fJno8zaQFb82zDRZfsxuW3nAYVj87NvP/PFVOZenb3tywxkfmkMwlbY4REWXDQIay4RwhIiIiKi2Gdnn60tFnY2P1DsC6pf6VFKs0bQWevAwYt3PowkoQ2pkXjxZdtTNWPuzUlW204uxD9iX71PoSRwvtoqGREtqlQiS7aOFYumQL7dIhWbSk9h0K44LihVnp41kXraMtM+98igRjRl9jgpd0f60A0KQFbtqygHF8Wce7wIFQ2TvTOSfO4Kx49WF0s9epoV2Ye778cy7/To2vsT5ZaGec70w/2+sKgKEdUeXYd5+OuPUnu6HJ+Bsh5eGzvN8D5Vq2bAQ+W+h9R911X4r2v8DMv5mKYdGIL2H1M6Ox+dOFaJJjK+cic8MaH5lDMpdkTmlzjSrF0eh02hx0+d+TlXVE8RjIUDalniM3dN9TXZ4vtkdEREStDUO7PPU+9X+ByVX+FRSryN11U46MXFRxL6wooV1g6U1Hxt915+xL9qn1JU46dFJKKhBSQjubG054JR16xG+XDgbtsMMrZv10H80gxC9WaJWuqwRvTvH6FhPGRYK07HfSRfqmYWhXWMNqUa8Ed/rjMW1yTr1z1bw77ex5m+Hn1LnLMEdywNCOqHJU7dcB//zVDtG/FeRutX8+6b+3lGFZ9i7w7FDgln2jfS8S7W+mYlgybl+semIoNi91jrFci8wN947G8BjJXJI5pc01qgRHo/OQpTj2fuC4+1fhsJMZ3FFyDO0om9LOkT3x6oiv4jfqunywPSIiImp9GNrl6ebzq4AnL/WvoFjlyQHAdV8G/noH0PBb4PZDUhdV7NBucfUeWPP8r7Hur7/HJ78+FCsfcbbVirOvmy+oUvsSJy60C4cZWvhmBFpWyTu0iwuy7OVaqOVLHY8RZiVdFt1/Od5pp9Rvw/Y7c4i6PAjuFi+4x192Pe7/CPjgj9eH69mMQM2dg834TrvU+c72c0DOYQFCVoZ2RJXjwqO/rt9lN+1o59dBGT6uUZ4G8MoUYOLuwJhto/0uIjNYK7oh22LxqN2xdoFzrHFPQGjJInND5og1RjKXZE5pc43aopOxz3d+hX19+w34D45xA7vAKhz2k/T6fY9giEfxShrIVHVHz1N7odepPdG9SllPZamkc+Rbu2PVTbvgpW8p6/LB9oiIiKgVYmiXpwWXfw149yn/CopRlv3T/e46rPjAX+CUjWuBu0/wLqoYod2ScZ2wZdl7fiW5NrQZS8buhc1LnTbs4uzrpcu/rvYljhpeRdjhm3n3mh9yGEFTvqFdepkVnNiBlbovT9KATj1uJRhL1VPCnFBwGQp/LFrgliGEU/eZoX6bdadznjc682OYsk4Mm4ZLLvT+fYozPo3rF2LCmVYdZ668Y8w9d2xT5yoc0kVDvPQ2BQnt4pbniKEdUWXovG8HNFy2YyR4cb10g/croVxKU5Pz6/wV4MHeJQ/rApFgrRSGbIvPpvfGpv84xy5jUE5F5ogyTjKnZG5pc66cjJ7dgIb5U9FPWZeffpg632mzodDtlq99BwR31SW1FAd/R28rNw/iSKe97w4bp6zL0wkv4bt+PwvaLiVWmkDmcPT79WzUvey/VsXLdZh9bR9UqfWpnJQytBt3/i7ATZ/DqvP3Utfniu0RERFRa8TQLk9Lr94JWLPEv3pilNemAXce4f9gFAnxrt0xFNpt+Mez/sp0WX7fOVj3stOGXdYsdvep9SWOGl5F2OFb8LMWKjXjTjs31PCKWT8dYvl1jXrFDu3MfYXvptMeuxlDazcmhEsfq1Oy9a3NG+LNkxVvYZQfzmm6TXXO0RZnXCYrd+WFzp9T7FDOmLdxrwE5J3mHdmb7BTp3DO2IKsNPurXDVufvgUjwMs7522LVf/33lTIomzcA9TcDt3Ry+rdNtL8lEgnUSmYbfDK+E9b+6RY0yViUS1ntzBGZK9Y4yZzq7cwtbc6VRPXs9MV4Q92UfqF6hQ3t/MBu9mhlXcvoN6XOOe7ZGK2sU8coj7HoPGyVFcplswqHnqC3lZsCh3Z+YHfk+cq6llBu/SmRUgQy/W6f58z3Oswef5F3h92RvTHwljmod14D824Pv0fkRHlNza5W6gXOm4o6q36I8Xr0XsvROvZ7WseOozHbrJPwNe2+F6a2q8PU8+w6VrtqnUAudXNXutBub8wf5fxOu8kx6mu4Uq2TC7an14vnzUv/d5jyeonOf3sui5jfgSnyuzt+jsa/Nvzf+RXyP+gQEVFlY2iXpy3V2/pXTqwyb0Q4tFu/HNiw2vv3k79IhXZyl52Ups2N2LrmE/ffUiS0W13rtKEU2afWlzhqeBURF9rpJR1ghYMtKcE6NbRzhEIrq6SCEyOIKXpo50j3VS92IBmhtRsKc7QSHpdM9TMGhq3eKIxasBKNW9bhnRcexyW/CIK5UTjlpsfx6HvOudm4ErVTRxnbtG0M7Ygqw5TTvxgJXFxP9Pff/cugbFoP/HEoMFb53r0S0wO10lk0bAf3u+6aZEzKpfzBmSvKWN11xhexjzLnSsK9eG5dhAsu+BmhWn6hnXdBOnIx3m8/40X6EtNDu+BuwOhFyuDiZC7H0NpCO7e/v30JnbXl9y/EgdbyFsPQrnCO7IfRU2Zizrx61NXOc16n9Zhzbc9IvZ7XSnA3BzXHhJcnNXp2+LUWBG25vydE32PctrK+V3nbpYOMZKGC/T7o9dt8f4j2x3uvUIIO/31QC1MKpWSh3aFfx1IJnFxfwPxDlTq5YHt6vTju7/H0a6rflNnh+eaH5OG55szV0P84E/y+iwnuUkGgMpcd2V8bXvvFnO9ERETlgKFdnmJDu/mjgPFfSD9K6bmRzh9MHb1/vzcvFdrJxR8pn/3+DCy/+6fY+O969+dPruuC1U87bSilNKGdsyx0B9PHmB4XpIXqZQ/twuuCYt2hVOLQzqMFldG+q3IM7dQQrmJDO0+3cXNR++E6NG7xD9opjWtW4p0Fc1OPyKwUDO2I2r6uB+yFV7RHY8qjtZe+5b8LtnBZ/j7wyDnAmO2i/WwBWpBWckO2w/KZ52DLZ87YlEORuSJzxhqrVwfsiG8e2EKPxNJCO4cdYlViaOddbI+5gOmIXpTM5GjsP2qDFcpFHXvXUnz798HPG3DEGYX4Xrs2HtpVqEIHMlUX3ozaemfO19Vi9pSbMfXeOaitnYpLlbrea7se8+6/GaN/2RuHq3Vy4QcGOd59q70vua/LLO9Vap1s70vuevv1bvd7NEZHtrcDwrhlhVfQObJvB/z80L3xK8Wovl/wAyfP0r57qfXEWfuyPVte7aUkC8MS/Q5XXwPeXNXvoPMlem04rHCRiIioLWJol6fYx2P+/UHvwsmDpzk/NAF3fRd48jJv3Ud/SYV2a164yV209qU7sWTcvmhqXIV1f53hfofK+tedNuySx+Mxiah1YWhH1PaddlQ7LLtKCcOmf9+7u62ly8p/A3efGO1fC1JDtBaybMoJ2LLcGaOWLjJXZM5YY/WZM7dkjmlzr+hiQjv7IlzFhXaJ+pg0aDjaDbqyfZ/dsdMX4sAjO2LfXy41lq/CYSc3N7hjaNcWFTa0uxQz6hpQP7sGveQxmEqdw4/vhV7HH+7/3Ac3P1mP+hfrvQv5z07GRTHbJeW+x+QU2unvL9nbiQs5Mr+e48LAyHtHRMuFF4UOdked8iWsmuT83jICpsQm7YyFp+yNo9meXj8bpT2XGphFJQmz1deU2X7MvpK/NmL+JiAiImpDGNrlacHlXwPefcq/cmKUtZ+4312HsdsBf3c+1ZrlgxdSoZ19N93mJe9g0ZU7OXYMPS4zVZx9yT61vhBR28DQjqjtq/7BVyJBC8ZsCzxfDTRt9X/pt1BpXAHcf2q0fy1MC89a0mfTTsHW9eazBlqgyFyROSNzxxqvMc4c0+Ze0eUd2vkXouWCfcBY79Y314nZo9Xl5gU87yKfud6+sJ2+6Jdqy78YnrpY7x5TsH1wDN52qeXWhXn74mL0YqMuSb19L/1P8sDurDfxvcj6pTj4O0rb7mMhvUdoHnh9eJvwoyK10M5bZm5z3PUPeuv8x02G1rn7UbYJhXfjcOhvrfVBm4FUn9N13X4py83tvaAwWG49NjTu8ZjnLzS2UbaLFT1OO/BMBZqpsTLbtrd3xsjtS9L9J1PQQGboTNQ31GLiico6X+r1ZS2v+lENZtc3oH7WaHS31iUXF6TFi3vtxfUzJUMg726rBhsZAr2499CU6LZZ+1gghQ7txNFH7oH/jN9OD5bijN8NTzvvb2yv8O25r4OsYVzCOZctAFTX5/baKNXcJyIiaikM7fJ08/lV6Tvo7PLiDemLJy9PBrZs9JY/NzIV2i29+SjvEZqODe/UYtFVO7sXgtbMd7bVypOX4uYLqtS+EFHbwNCOqO2be9HOoYDFdf2XgYVP+7/wW6jI/3T04OnRvpUBOzQrB5/9/jT9f7IqZVn4jDd3rPGaf/HO6twrupgLzvYF8cjFbGe78AV2PxQLXYyL+b/q1YvmQQgYvgjv7jfUP6/Nuvl1kXa9umYf/DaduqELjf7+zf5nPd44WS/Yd1RDu+9edTcOHOvdfZc5sBOZQ7vv/jYcWAUBV3pZNLSTOqGQyw+f7DqJ77QLwqtQSOeHV2YbqT7rwVso2PJDN6lrtusFlMb+/W3N4/HqhPcRHRdFsE8zpFOOzRsbOQ5rfPy6oe1T4WEZh3Yyj7PM90wX27tfVxt57eYi8estxX8fiLtbTt4HUqzXZ4ZgIj4A8dpVQ8VEQYf5fpduy3vfSfdVCxKboxihnWu/PTH/qh31gMmy4aqv4Yb9lDZMbC9WtvbktaPOS4P9+00X95oyqHM9t9dG/GuMiIiobWBol6fep/4vMLnKv2pilY1rnD+MOqYvoNxxGPDcCGDs9qnQTi74rHzkF1g25cTUBaAlNR3RJNtqxdmX7FPrCxG1DQztiNq2zvt0wJprondG4bYu7mOwW6zI/1z0zGD1rq1yEPydVFaGbIuVjw9CU/A/ZrVEkTkjc8car8aR22C/fTuoc7CotNDJXRa+gJzkonr0YlwOoZ27T+2ion8RPhUWeG1q4YHbR7sN/1jsC4r28dgXNROHCNr4RUQfj3nM9Q9i344XoMvVr2YJ7DI8HlMLiHxuaJUKlKKhncbdJhJMJQvt7G1T7EAtrs/q8uCuOz0gtNsM/6wHZOFxsXn7U8fJulPOG4PoPuLGIa5+cxQ0kBnlv/4yPOLSfU3EhHbxr9844XAtW+gQkcP+vPcF4/0mQ8gWH25kCybiAjft/cpfZh23t++4dvJTtNDOd8NZX8AGJWjy7IilZ+2Jk5Xt4rA9U5L24udlMO9dca9bf+569bL9HnOor50cXxs5v1cQERG1Lgzt8vSlo8/CxuodgHVL/SsnVmlcCYz/n8iFFDO0My26+n/QJNtoxdmH7Ev2qfWFiNoGhnZEbVv/Y74W+bvANesM55d9k/c7vyXK2w8DE76o960M2H8zlYvF13wR6//PGbsWK86ckbmjjNml3/+aOgeLyg+1wqIX7+JCrNCFQZd5MS55aJcpEAhfSPfajL1IabcRc0HdPp7mhXZJLkAejf1HbYAZyHnBXabAbgOOOCPD99llCKfCwVpcaKc8ztIItJKHdl77+h1s/j6CIMsO2AIxx6KGbGpIl/45rt+uTI+pzDCe9hhGxyBaJyTTfvNU0ECm6mrMrHdeV1MvQpW23hH/Gq3C4Pvr0VA3A5dG1iUTBFbqhX9FpvcLTej1rAYPHrcf6us+WzChtBe8t0ba80O7yHI/yEzyvpNQsUO7jh33xKvjnd9fWug0/qv4jbpNJmwvt/a8OZM16A3mYsbXjD//MoV36lzP8bXhLmNoR0REbRdDu2YYftY3gSldvYsmWln1X+ePpC+ELqJood2iq7+ALSucumpx2nb2IfvS+kBEbQdDO6K2bc65u4b+Jkj5233+7/wWKMv+Cdy0t94v2417AQ/0Bp6+Anh+jHd33gM/8bYfs42+TQGYfzMVw+LRX8Oyu07GqjmXu985vOqJoVh+Tx98MqGze0edtk1gybV7Y/NSZwxbqvyfM3eUMZO5ps3BonIv5mW4SOfTQ67wRUA7+Eoe2vkXC2MuKIbbjWnToV7Ij+zLox9Puu/RY9G59RJeZPeCHiMgyypLyJMhZAqHStEwyQ3DtGX5hHZ2iBaihXZKn2OW5xPaqdsEMoVnGYM1JbTL1i9TuYd2jp7Oe0G981qpf3IGan7ZB72OPzy0Xnt9Hd57ICbOktdKvfMa6xlal6ukr7m413QmobYzbG+/L6RleI9S3kO9/cWFkPH/40HiMUio6KHdMV/NcKfYTnj1GGWbTNieIUl7CUM7keh3febfxd5rRw/tkr42vDYKN8eJiIjKDUO7Zmh3bB9sGbM9sPh1/8qJUpa+A9yYvhhmh3buxZ5PnDpxxWlb9iH70vpARG0HQzuitkseV/jpVduFghXXWGdZ4yr/l36Jy5YNwL0/iPbJdO0OwO2HAv98Emja6m9ola2bgffmATP+F6iR7+wrbIBnhmSFsujKnfDpbd9F498fdfofc1zO8W5870/4dPL3nfqfV9sRn/32B2ja7IxlSxSZOzKHrDGTuVbyR2TmE9rFXPSOXnBOGtrFBG6+cLulCe3itgvzLlbqF+ajSh7apUIlK7SLCZDyDu389ssltIvrtytTeJZhPCshtBM9+0/E7Hn1zmvBfy1VXYSpz8r3R/b0X1816HPdHNTV3uy+dtxldXMw9VfNC+xcCd+LvHq5XfTX3kOir9vMgYX9nhGw3zvcehnfO+L347aV8H8CSKLYod2483cxQqbtsGqM87eEETytOn8vdbs4bC/X9nL4HZTod1r8PHe5bURfo0lfG648Xr9EREStCUO7Zvrxqcdj6/W7A2uW+FdPlCJ33D14mnsRxQztPptxGrasjLvDzilOm9K27EPbNxG1LQztiNquH3T9BtaPUMKsu77t/9IvdWkC3pyV+bGYvzkQeGUKsGm9v02W0uS0+f5zwOw+wLWf19vMgx2SNceiq3bCZ3edjMY3H0dTwuOSQG79aw9g6aTD9TblMZlvOGPZUo84nerMIWvMZK7JnNPmYtEULLTzL0SHLsYlD+3Ui3su+wJ3iUK7oE6Gi4vxfdbtO2Bp6HvtsluKg7+jt+XyQyLzbjmPFZQlCu28OvmFdvb+DGrApoRXMcvzCe0yBWQZ78Kzx8lktamPTfw4uPuN6VO+iv/oQ1GFi26pRX1DPerrnddDvfNfuavu2l6xj9HMV9LXk/o6zygaktmvf1e2UEN9r7TaztaGTz/WaD+bq7hzZC+8NMb53SUB06SdsfCUvXG0s3zUKV/Cqkn+8jG7Y1xkuzhsL5/2ZC4nCu0S/a7PMgfd+a20keS1YdaNCwWJiIjaAIZ2zfT5752Luy/pDEw/Blj/mX/1RClyIevNWWj6/fFYdufxWP/6LG9ZXJG2pn8f9/yss7sPbd9E1LYwtCNqu644fndsGqWEdvOG+7/4S1w2NwL39Iz2J3Drft6TBJpi7kLLVDasAv7xuPc4Ta3tHGlBWV6Gboe1dbdg67rlfkdzKM7fbFtWfOQ+RlNre9lve6JpkzOmLVHmOnPIGjOZazLntLlYNPmEdn5wZl6M8y5CO8tCF6JjLtqpF7b9utaF7GhwVrrQLt2n6Ph4/co+bmEnY5/v/Ar7+vYb8B8cI0FZyioc9pP0+n2PyPB9dsIPq+wwKBoQWWGUv50ZTnnbOMwgKib8ioZ2jqAvocDKDwLNZW49JbyKWZ5XaOfQQjKv39FxCfXPPWYruPPbN5fFBZrq9v4ybSybozShnQiCO5nzBQjs5DWpXci3X6fuMvs1GXeXnLHealt9rfrvC+l2lPeqyP79OhneN9yfEwUS0f15beX6npJZUefIEV/DUgmWxu+Gp48Mrzv6yD3wn/HbATf9D+YfEV4Xi+2l5NJedM45rwF7Dkbmu7ed+nsx8pozuO1oczT7ayOg/p4mIiJqQxjaFciTA/bygrtMd9wlLdKG05a0qe2LiNomhnZEbdM+jsm9d0OTFaxgzLbAwmf8X/4lLu/N9fZv90lMPghY/bFfsRnlvy8Ddx6u7yMHWkiWkyHbYMmE/bDx/Rf9juVftnz2AT79zdHKPrbFhn86Y9oSReaQdS7lyQ63/WQ3dT4WTV6hncO/COgFdd7FQPUinX8x3hVcqPO3jQ3egvoicgG8lKGdzzyGQEEuOh6NzkOCu+9W4bCTs4R0tlTQ5YdPKVagpt1BlgqSPBJ4RQMy/84xt046cFJDO5fdD2ufIiaci1ueb2gnvH6a/dHHJXJnnN+eua3athbaCWts3fbdZa01tBNV6DOoBqMvK8QddkEYboq+B+Xyek7z3h9CbUfeQ3zWe5i9L3X/kb6H3zO89xFzvck+xsxtFUIx58iv+n4BG676Gm7YT1/fcb89Mf+qnbC07976egvbsyRtz53H4bkV+T3qiLxm7Pkv4l4rAWVfaUnmc/zvbyIioraCoV0ByR13W6//qv8dd/k8IsnZxtlW2pC2tH0QUdvF0I6obTqgUwfMOXfXUKjimrg78Ok//L8BSljk+9emdI32R0xqD/yrgEGiHN99Wb43L4tIQJajT244DBs/eCnzEw5yKBv/81csHrV7ZD9Lb+zaMt9tJ2Msc8kat0f67YouztzT5iS1RUej02lz0OV/cwzsRFwARuXHDe20oDN/pQ3tSs0LAFru4n5L778wijdHOmBqzz1xsrou7Iae7fFzZXkY24uTvT1vrsbffVpG1LtniYiI2pbChXZ7H4qeFwzCyJoJmDDBUTMSgy7oiUP3VuqWWKlCO3mMpXz/3JYx23sXw9Yt9a+mJChS19lGtpU2+EhMosrD0I6obep6wF6o//lOkVDFvQtt1Uf+HwIlLO/WOvtXHtUpnhkMNG3xKxaoyF1707+v7y8BOxzLxeLqdu7dcfn9z1TxpfFvj7p38IX3tw02vPO0X6OEReaQckfjS/13whFdkv2f+lThGNq1Guodg83UpkM7uaMn210/xdTS+y+Qth3sUkqrCMNaUbhIRETUDIUJ7Tr1QP9RflhnG9UfPTop25RQqUK7QLtj+2D4Wd/ExuodgMlVwJOXAe8+FX50pvxblsk6p47UlW1kW63N8vUA5q/xj+nDF5T1heLvp6j7iHHrW1iBdZh/q7Iuk3y3a44n5XFmH2O6to7KHkM7orap+8F74r1Bzt8EVqiCmb2AxpXur9CSla2bgDkXRPsibmgHrF7kVyxw+fgV4OZ99P1mEQ7Gklsybh9s/PfLfgcKW5o2N2LZ1B9E9rniAWdstzhjXMoic0jmkjVu712xA77nzD1tThKFMLQrO/LYTP0xnYU/TwxkKBvOkcrhPRKzXIM7/9GZbSAIJyIiyqYAoV1H9Li0xg3oqn95SvrOur0PxSm/rHaX11zaAx0j25VOqUO7wJeOPgu9T/1f3HJBFRZc/jUsvXonbKneFpsd8m9ZJuukjtTV2miOYa+u86/mGGXNWxim1M3X9A+dNksSpDG0S4ShXavG0I6obepxWHusvFr5/rgn+gNbN8tv59KVFR8Adx4R7Yv46+1+pSKVD+qA67+i7zsDOxhLYtGwz2Pdy9OKOL5NWPfK3Vg0fJfQfpdOOsK/s6+ERY5R5pI1bjLnZO5pc5IohKFd+bG/z85V2MdiBhjIUDacI0RERESl1fzQrn1PDJA76sZejGPb2+uOxcVj5Y67AehpryuhlgrtWpob2oVCOj/4Klhw57W34tUHlHVtCEO78lABgSRDO6K26dRvtkOTFahgzLbA89USuZS2vDcXmPCFcF+EfJfdhtV+pSKW+luAsdtH95+BGYolsw2W39u3YN9hF1e2LP83PpmwX2jfi67+Aja864xxqYvMJZlTxrjJnJO5p81JIqIAAxnKhnOEiIiIqLSaH9od1hfDJbQb0FNd33OAhHbD0few6LpSYWhnLC9okMTQLiOGdoXF0I6IWqmB/7t7KExxSXD1yhQ3bylpeemGaF/EI+cAWzb6lYpY1iwG7j5B70MMMxRLYulN38TWkjx2tAnL7+kT2f+a550xLnWRuaSEoQOP212dk0RERERERERUnpof2nXpjaES2g3vi0Mj6w9F3+ES2g1F7y72Ol/7jqj6dg/0PKkneh7TFZ2Cx2sWEEM7c/kLeAfAO096PwePt3T/6xQzgIs8XtN8NKUbSIVL0GZknf1ISzd8MYq5PnadFhD6dw4aJdUHX3B84WOJBj/B8Qcl1E7C8C28D6f+k9p23vininF+9EeNRo873FerfTXYsvYZ6VN6HxnHKWjbPEd+/0PbaXdyZpwT6f2Hjs0em1DJHN7Zc1c/n+FxCc+tlsHQjqhtuunHX4qEKajZEfjH4/47UAnLAz+O9kXu0HrpRmdlce9MS5X35kX7kIEdimWy6Or/QeP/PezvqPhl3V9nRPrw2XRnjEtdZC7JnLLG7sZTv6TOSSIiIiIiIiIqTwX4Trsq9B4mwVwNBpzUJbSuy0kDUCOB3rDeqDKWBzp9ty8GjZJtDeOGo/+JVZG6zcHQzlhuBVBBGKKGXaFgxA/IQu1FA6VowOVvF4Q0kfUv4J0k6yL78gMXM/xxtw/3Jzi+9DKrP/5275jH4IZSRj8i/YryQiJzvIJAyDoeZ4k51m7/gjHVAjdrmVvf7LvdV7sNZUy8OmY//DFxSnTsjLb87dL7D47RKday0P4i42efg/T+031S2rGPLUZk3vtjkGrb/zl6bJnPcSkwtCNqm2b2/Z9ImIJxuwD/fdl9NypZkcdF3tQh2pfxTv/eKl3Q5ZbHLoj2I4YdimXy2dQfYuv60P8mUtSyecnbkT4sqXHGuMiP5oyUj/7izSlr7Gb2/YI6J4mIiIiIiIioPBUgtHMc0RfDx3mh28hBA9D/kv4YMGhkKoTre0TmbaqHeNv0/9VwP7yrxoATOkW3yRNDu2CZH7IYoU8oNArEhVQx4Ysd9ISCFmGGLZmCl4yhTHhfaiCpLFePL2v4Y4VrceORYtUPWNu5fTMDt0idaDuhkM6ta/fbOgfWsYW2N4SX2yFawOqPMm7uMWnLrHOQcU7E7D9yjrOeNyF9jp6r6Dja5ys6l1sCQzuitunpC6JhihuUffoP592ohGX1osj3nrmu/6r3XXelLCs+8L5Hz+6Lwg7FMmn8+xx/B6UpTRvXRvsxZFtsXeWMdSmLzCWZU9bYydzT5iQRERERERERlafChHYO9a65UYPQ97ta+NYRJ//SqzPotPBddZ2OuRgjZdvq8/EdY3lzVHRoZxU7lFBDHQlHlEAsCDbSYYcddPjhi1qsgMYp0YAk+7pguRoECSvYij0+O/zxgxyzpI4zFKwp1DAtWJ7ezu2LWuKCPSuAcvutl9RYKGFYOJzyhc5xeGzTrOXKuEWCtciy9DmNlnA/7f3nFdop5zFVQqGdfT7jxqC0GNoRtU2vXBZ9bCEmfMF5j1viv0GVqCx8JtoPMXF34P35fqUSla2bgdqBen8skVAsxtJbvw00bfF3UJrStGWj2peN/3DGupRF5pLMKWvsZO5pc5KIiIiIiIiIylPBQrtAxx8OdMO4gT/sqK739MAAN9Q7B90i6zri5F9JoFeNc75lr8sP77TT14tihHZqSBTh3cUlJRqUaOvC+ypkaOeFaWaIY91hpoY8Bmuf4eXp7WL7bDLbss9D7HkxhI4tw/kItWWfx4C13Bo3kTS0yzwn9P3nH9olqcPQjohK571BO0TCFEzYDdi03nlfK2F5aVK0H+K6LwMLn/YrlbC8+5Szb+X7/ixaKBYxdHs0vu20V+Kyde2nan/WveCMdSmLzCWZU9bYydzT5iQRERERERERlaeCh3btThjghnYDTlDWpfih3fC+OFRZ3+NS7y68zG0kx9BOXy/UUEsNNbTl0aBDbS+DTH3Uwp9gX3Hb2cuzh3ZWQKctixuPgLteCabc/aS3S3I+zJArEvJl64ewgq248xFeHhNY2fvLK7RLMif0/UfaThLaqefToo5jzBiUGEM7orZp6ZXbRcIU/Hp3592qxN979tQvo/0Q8l1of3/Ar1TCsn45cMdhep8MWihmW3pjVzRtcN7IS1w2/fc1tT+rH3PGuqTFmUu//lpk7GTuaXOSiIiIiIiIiMpTC4V23XHxWAnmBuGUTta69t1wzkhZNxS9u1jr8sTQTl8vMoY6oYDECzXCdZWgww1WrNDk1rfwTlDHWW+uC/Ux07rIvvy78cz+KOGZenyh8Cd6DN6xG+0kCMui4+X3z9zO7184GHLqaf370BmLSEDlnwPrnE536qbqhY7Noe3TrWMej9+uU9Jjp+zLbtuhzTE9bMswJ5RzICLtJDgPInoupK2PrfOQLbTzzl/sz/64ho6pABjaEbVNa0dsEwlTcHMHebMqbXmwd7QfYozTv/qb/Up5lqat+T2a8o9X6X0yaKGYbdUTw4CtOe7f7bOjGWX9K3er/Vnxe2esS11kTlljJ3NPm5NEREREREREVJ5aKLRrh0P7DHfrTbjyHHQPwrm9D8Upv6z2lv/qZHSytskXQzt9vVBDLXOdUexQJS5sCUKadLFDJaMo4U6qhPqu7SsIxoISDXTU47PDJz+ACco7T3rt5hLaifB4Oe1r21n70vqcOi71vPhhmlFCY2Ifm4js01qfGtsXwm3bc0dpO1FoJ+xzG2pHn0daO+kxto8hzJ670XCXoR0Rlc6mUUpod9v+8u5U2vL746P9CDzRH9i6ya+YQ/nsX8Ab9wDzRwFzhwMNvwU+edNfmaAsfsPZvzI+Bi0UMy0avivWv/GQ32CW0rQVm5e8hXV/uQuraq/B6toRWPfX32PzsvdkpVcnh7Liof5qn5ZP+V+/RgnLbV0iY7fZmXvanCQiIiIiIiKi8tRioV279l3R+wo/oLON6o8e9h14zVCpoR1RMnpoRqXH0I6obbKDFNfth/hJSwnLtO/pfRG/7QZsWudXTFCamoC3HwEmVwE1O6fbufbzwE17A3++zqmT4M43qXPzPuG+WLRQzLTk2r2wadHf/AYzFwnrlozvjEXDdkhtv+jKHfHJ9Qeg8W+P+rWSFXkc59JJR4T6EvhssjPWpS4yp5Tx0+YkEREREREREZWnlgvtXHvi0JPOx9BRflg3diQGXdATh+6t1c0fQzuiTBjalQuGdkRtkxaktEhod9d39b6Ia3fw7ppLWv77svcdahK4SXA3ftdwe2O39x65uXWzv0GG8vjF4W0tWihmkuCsaWOWwLFpK9a/dj8WDd0utK3cpffJrw/GkrF74eMh23rBXcJHZm788C9YXN0u1F7gs9u+7dcqYVFCu62jGdoRERERERERtSYtHNq1w57dzsFwp/4ZI2/EV8++E9sNnI/PXfU3l/x7p7PuxG5Hn69umxRDO6JMGNqVC4Z2RG1T2Twe8+4Tov0wPTvEr5ilrP/MexTjnYd7j7fcsBp46pfAmG3D7d26H/DZQn+jDOW16eHtLFooZloxs5/fUHzZtPjvWDxqd2vbbbBm3nVo2rgWmz56FYtHfAlLb/omtiz/wN8qQ2lqwto/3YqPjTv2TMt/64x1qYvyeMx1/E47IiIiIiIiolalBKHdnujUpQu62A79Dk65YCh+POZefOmav7oXqzORAG+3o88L7yshhnZEmTC0KxfyPsXQjqjtWTtCCe1u7uAnLSUss/tG+2Gq2QlYt8yvnKG8cbdX/4EfAxtWecsapgBjd7DadI77L7d66zOV//41GvgZtFDMtOb5X/sNxZc18ybg4yHhu+zkzrqN/3H2LaWpCUuu3dsN4Rr//pi3LENp2tSIZVNODLdnWHmfM9alLjKnrLFbOXxbdU4SERERERERUXkqXmh3Yhd07zMQI8f5j75UfHf0H0LBXBK7/Hicvt8MGNoRUWsg71MM7YjanqVXbhcJU/Dr3QE0eWFLqcr80dF+2F6c6AZYGcvTg7y6E51jeOVOYOHTwIzjom2JhxOEV5++A1z/FX17hxaKmbJ9F13Tlo1Y8eBF6rbLpp6EDQufw5rnb8CiYZ93l62eO87fMr5s+vAvqfqatc+M8muWqjjnTB5Xao3dJ8O2U+ckEREREREREZWnooV2E4ywrmZUNapDRuKIQTNDYVwucg3uGNoRUWsg71MM7YjanvcG2XegOSbsBmxa7wcuJSpvzor2w/a77wKrP/Y3iClPDUjXv/bzwHXOschddWY7gQdP8zfKUJa/D9zSSd/eoYViJnm0ZabStLkRy2eeq24rFl3zRSy6csfUz6ufqfa3jClNW/DpHf8basO24Q1nrEtZZC7JnLLG7n1n7mlzkoiIiIiIiIjKU/FCOzHsHHTvEq0jj7k0Q7h85PKoTIZ2ulOmvoDp0+/Efso6InLctxAr1m9Co2sd6u9T6hSQvE8xtCNqe165bMdImIIJXwDWLPETlxKVlf9x9h0TrgUkhPvbTH+DmPLn6/RtNc8M9jfKUFZ9BNxxmL69QwvFTFtWONtnKk1bsWrOFU7dbSLbRm2DtfW/9TfUS+P/PaxsZxiyDbaszNKnQheZSzKnrLGTuafNSSIiIiIiIiIqT4UN7fbugu+cPdQL7GoGomcnpY5Dvp/ODODyIW1obWsY2kWd8uTHaHSv8mzCO08zuCPyDMGwR17AwAu9nwe+vA5Y8yEeffoVvB763r9RGDj5noK/buR9iqEdUdvz9AW7RMIUjP8fYNk/3N/EJS03d4z2xTalK7DRedOLK0v+z/v+O21b0/gvAB8872+UoaxZDNz1bb0NhxqMGbY2+t+rl6E0/n1O6G66OEvG7olNwffcKWXrmqVYdufx6raBJTXOGJe6fOrMJZlT1tjJ3NPmZJtQPRsNDQ2u2dXK+jao35Q653hnY7SyLit3vOow9TxlXZE1q99ELaUNvMe4r735U9FPWVc4ozHbGaO6Kf2UdaZ+mDrfGc/Zo5V1eWjB97SyxTEhqmijZzvvsZne88+bijq+R7Ri3u/bov9NUmG/S8r5c0rBQruqkweg2v7+unHDcf5xXUL1djv6/FD4FjJtKZ5b7n+PytYmvP/2Yuyr1fNJW2bbcRjaDcGJI+7EuWM9Ax9aiBXeKPtFgrt7UuvPHXE9QzyqQEMw8LmlXpi9cSnm33cjpr+XDuqGvboOWPQKThldi/pl3uvmg+cKG9zJ+xRDO6K2Z2bfaJiCcbsA/31Z3kxKW2b3jfbFNmYb4NkMd8g1bQXmj9K3TXHamHUmsCF7oIa1nwDTjlba8GjBmAlbN/sNxZemTY34bOoP1e1NK2f3R9PmDf5W0bL+rzOw6Kqd1G0Dy+9J8D1+hS4f/cWbU9bYydzT5mRRGBe4Tdkv5Oah5B8mk16ULi6GdpQvnoMcler1EvO+Wah9M7Sz5Hle3QvhkXNkas77srN9SweZ7oX8cgqnvTkVGedgnIJxSzC3vfc+ZX76xxxq3zyPcWOZbbus/NdBpA2HNQ+CvsfVUdc7kp9H7TUZM/ZCnafxx5P8b6ZCtNFccX0w5kAw7zIIjb1WP2ugZtXP8b3FDu0iv/vzCe1yPY6WFHOOgvOSes2oczkseN83z2n0d0Ge7/15K8/QLtt7lU37nZrbaz3mfSrPeRl5nRRIruOi1S9IaNfphAGodkO6agy9oDd6ntQTvS8Y6od41eh/XMdU3Z3OujMUvIU8sQrPvbkYx9/wJrrWNaIRGzFzmlLPJ22Z/YhT8aHdfR/6d9UlLZvwepEfA0hUXtKB3eI3XsH8TzZ5L4UtwDuP+3UeT3/H04r3FuCOF6R+YYM7eZ9iaEfU9tz04y9FwhTU7Aj843H/XaWEpWEqMGbbaH9sNTsD781zNvD/Zyq7SLD16LlePXvba3cAphwJLHvXr5ylrPsUmPG/0XZ8WjBmSlq2blyLZXf8r3rH3aKrdsayO3tga2P4f2syy9bVS7CkpkNk25Ah22JdvTPGpS4yl2ROWWMnc0+bk0WhfcALLkAk+HCcC/uiRPElvShdXM36UJnjB/BCKtaH4bKUzwWxEqiocxDDHYOE7xsle48p8usyl2POX9L3Ry0gaIZ8xq4g41243wcyz+rmF/C1me/x+b+ri34hOIHgYm6kL9LHYO64xxlTLyR9Ydc8X977oT1OMj+N86CMZaLtskryOvDr2K9dcwwc6vu6PzbJ5qfWl7j57deNjHmS48mmEG00l94Hb4z1eRb/eyIYq+hrMW5+F2ZuRfsUmSM5/Y2S+3G0nOC1Hh0vGYOgn8H51I4pxH9PDB+js4/Q/AjGJ7dz1DzecRZ93BP/Lokb97i549e3X+vO/nL7neq1E94m//MReZ00W67j4i9X3vObH9q1PxYXj/XCuQEndAqtS4V5I89BN39Z4kdj3rAS72MLnntCWedL+ojMig/tnkyHDUnLO08q7cS0tWLRW7hp9BC/zgt4RxZ++EJ4uxztd8MCvBNcN1vxFgYqdYrnAcyXp4KteQvDzOUX3oP731mJFRu9bklZ8cmHuP+mUca21DoNwU3vbjLO+SgMfPpjrFixEDdd7te5vBbzP/zYvQPP/XnYAnywRSaBNU+aQd6nGNoRtT2De+weCVMwdnvglSneL5NSlo/qgRvaRfsTsQ1wT08vUIsr65cBr04DHuwN/OYA4JZO3jYLbnTeTxf5lRKUZt9pJ2/GycrW1Yux9k+3unfdfTJhP3xy3f74bPqP3aCtacNqv1a0NDWuwme/O0Xdv2lxdTts/NAZ41IXmUsyp6yxk7mnzcmiiPmAV/gPQpkulLRtzRrLxB/AC68Yc6Bs5XRBjErJnYcJ3zdK9h5T5NdlLsecP+3imca/KFWoC/P5jF1Bxjvp8WYj7UhfvPYKchG2Bd/nCyHx7wr/OOuyzSejXvp8JTx/kbEs1HlP8DpIeB7jxiv5+5fWl8zH6e3T7FshXtcFfm/IS1wf4vsWN85eoBU/j6NjWKi5leDc5/A3Su7H0VKSz5+gz+H3hJh685162d6b/XCv6CFaSgF/X2SS6D3IH/cM882eQ974J3iPzyrmNZPn+Shcv0Tu45JpvJsf2h3RFyMlmBveF4dG1leh9zAJ9IbjjIO9ZZ+76m+h4E33Loa8twVoXIsh6nqf01Z4fzqGdoUP7Ra/uQD3P70Ate+s9B8n+CFuOlPq5BjajX0B9Z+sA94z69+JWvfxg+vwzoIFePTPL7R8aDfMOS4/rGtc9jHeec/xoX/s8njRJ/0gh1qvM2vxunOOF/95mr4+5HpMf0/uxluJ2nHa+vzI+xRDO6K25/SjlJBM7nZ7vtr9LVLSIkHb9GOi/dFIH18Y628YV5qALRu878ATm53fjE1b/XUJiwR8U7+l98GhhWOmrZm+f08rTv+anH42bVjjkbsGm2LuKJTi1F/z3HX4eOj26v5Nn04+BlvXuX/ElLbIXFLuoJS5p83Jooj7wFGEECPrRYk2qlkfKhNeBCyGwn4YLnMM7cqWdxEu2ftGyd5jivy6zOWY85f0gnPyC6uJ5DN2BRnvwlxgN8+NO98KMS4t+D7fbLlcbA2Oc0qm4/XmW92UqeHzlXQ/9ljmeTE4KvvrIOnvzNh6bt+T/M7V+pJtftvrC/G6LvB7Q17i+xD3+lR/TySaJ9a+Cja3EvzucveV4D0in+NoIUlfLyKoOzXjNt4cn+28d2QfA79uAc5dMiXaX5LfJYl+34TfLwr3t5X9PhTw5mT8+5culzmUVR7jkmn/zQ/tjrkYNRLaDeipru85wAvt+h7m/Zw9tPsQkz7YDGzejKdq31XWGxjaJXLKCyv9KzoZysaVWGxc81r8wp36I//80M4M9S5Z4LX/zpNyt12Ood2tb3nfrxeqH3OnW8nY+78e0z+UTsp3/4XHZb/RC7wwb8vHmB7ckUWtUrdhd+KmN9c5J3Mp7k+dyyE4d/oCzH/jLdw/3Tj3dy/0HqX58gM40Q2rC0PepxjaEbU9PQ5rj1VXK4+kfKJ/ou9jK3iRgMfuSxy5e+vvD+Z0N1vOZdV/gTu76vt3aOGYacuqHO7qy6Ns+NfzWDJ2T3XfttXPtEAQK3NI5pI1bqudOdfj8PbqnCyKuA8p1gWC1MUPt77z79CHFP8CgLvcZ14M8C8ihNYbH/68Dz3pddEPbd6HJLOO+cHX3j7ddtyHw2h7dh23Tbcdq27kIody7NYH2+QfKu1+OdvEnB/3fBh1U+OR4YJN5EO3fV4S9jsy3pE63nFIH+y69jhH55UIjjfb2DuSHEPG86icP0d0zoQlPi6rf+l6GS6aGec8cg7c9mRdut/mvvM/N/YcS9cLzbVgfEPnS59vzR4j+9y6oq+F2LqhuWCdf4fdH7e/sk2qrZh9iZjXpak5czvVl0i/o69HETpHjtjXf6iO17Y6Dka9uimjY+Zqkr4pdRKMXUTsNnb70eOx68avT8J73aXaiOlX5rmUfUy8c6CMp70/v/30+fbazv769tjnOm5+ZZI6VmVdRKr/Gc5FbB3/PS/bviLnJOF2WWV4zw745yPbHMt8fpOcA60v2ee3+x6QGocEx5NV0jGR8+HXtfqY5L3LnqfhY4zrg7dcG4/wOHhiz4klXM/fd7PnVrRPkf6kxjHzmOV3HHHvG3Hzyaufrhfen9uGeyxWvdA5ij8/mlR/I+95udVJMcZTXa9Kj1PoHATnzX39ppeH91/YMY6tE3n/i9LmvyZUzz+2jGOaiNfn6DGb8yHuNV2414kmr3Hx55p2Dpsf2nXpjaES2o0dgB4drXUde2CAPDpznLOuvbcs8+MxP8TvljS535My84EsgZ2Dj8fM7pQnP/bvBstQtqzE/MlDsN8D5nffRQMqlxLabT/ZC95WvPqA87MV2l3+OGo/XIfG4FrflnVOu/53gCl3AL7zlh/iGcVr9zx0u0kemel/15hTGld8jEenph9NOexVCVzW4fUFH2KF7M8N3YL+vIKbXl3q9WPLJnzw5wew37C5eD3YmTMG9cFjD+3QbuwbWCx1PlqAE/19mYJQ9IPnro+so1bgJuf8pubnJqz4JP1IzGEvy5xy5tp6b97JXHTn7uW17h2iqXm9cSlqbzLazJO8TzG0I2p7uh+8J94btEMkVMHMXs4bTIL/sabQ5bOF6qMUY920t/NL7nl/4yKU5e97j9bU9u3QwjHT5kV/8xsqfNm8+O/45PoD1P3aFg3dHps/dca21EXmkMwla9zeu2IHfM+Ze9qcLIqYD3j2ByHvQ0pd6HtZXP4HlvCHK/+DpPXhR/tA5H2osj9wmR+AlA94Tp+DD1+RD2zyYW92sA99W/nwFlqmHEP6Q3Wmvjmc9kI/B8ceacvsoyKmba8P5vlRLhL59bwxifuwa41FaBsRbVcdW6ljHYt3Ds0++vuS+aIcj7nM29bsb9APebyR0WaG8cl+DLKPLOfRXRZ9HWiyz1njuGLPU/y8cLf1t4vU8fspYxvua27nRvoR7a+5bbpeanyD43T2HR3jcH8KNUbCbd+sk4E5dqnlyrwL+hN5ncq8S7Ivt83M8yV1fHnM7VRfQudEO8fROZ/kdZF8HgT7dJjvKbHnM/M5D/qWbewitPFOeF7TrPfAfLjtm/3Q24ydSwnHxHtNmefBrBudO+lznet5De/Dq5fLufHbUcdbYfQ/7hjdPrjtKWMbnN/QMVu0uZJku6ySHat3XLIv5fz5Mh57kvcftS/Z53d4vzmeO1WCNvzXTOzvrIzvXUneV/Q+ROe8tc4a58RjH/MabN7ciu4/MkdS4xjeTzDfgmX5HYc/d+Q9S3lv0l6D5jJ7rNXXgL2d/3PSMTPHQz9Gbx647WdtO/trRZd+f021HRyXM3bR82fO+cKOsVYnaCvy/heS/HVvz0GvD44k8ytWzNiHzll8H+1zb/fRayf76yQq/3EJ2g71w9H80K5dR5z8S7mbzjHsHHQ/cE93+Z4Hdsc57qMxJ6D6wu6p+juddWcoeAupa0QjNuORu5V1Cmkr3Y94FRva3efdDZSxBIHd5Dew2PiuNq9swuv3WW0qod1+Ty91l33wtHKn3a1v4YNlH6L2oYdx7p0v+CGZ/0jBcY/j/gV+qLhsofu4zQkzH8AdT7+Bd9Y7y9Z/jFpn2R2Tr0/fkbdxKeqfW4D7n1vo9zf9eEIvtHPKmg+j37HnlBXvvWFstwmNGzdh8RuvuH1w216/EKPcbazQ7nHvmGNDOb9vjW8+rq+n8uaev6V4dMT1Vkhdi9e3yHn3wtxTnpN5/jGmh+rIHXqv4AOsw/xbw8vzIe9TDO2I2p6uB+yF+p/vFAlVcOcR3l1mLVEePT/an0ykr5m+36455VPnN/X1X9H369ACMtOGt5/yGyps2bLqY3wy6XB1n5oV9ztj2hLFvVPROT/WuL3Ufycc0WVvdU4WhX0BIrUs/OEm8oHRXK59yAl9APPYH7a0OiL0gcj/ABb3ATR2/y77w6Hxod6ua42D14fofiPHoHC3zfShUhF3HJF+aOfLYfZL3Z+7XbAs5sOpdT4i7YTaMNnt+Rc2Yo8n3Ybbb7Wv0fMUHvtcjiHBecwyz1KSzFmHelx2n9W2vLGLPQf+NpE53NxzE+mLXs87LnucrNdZIcfI4W6X5TUXiJxXv73mvOZV/hyNMPatHl+iuZ2pL9ZYW8cQCLUXNzfsueT+HL9P85xExzldL2jPrWPPM0dO4xyIHGfy85pmjV0etLmojUXcMSYdE+9n5ZzZx5bwdRupFzcnlNdfZjnWD/VfOR+hfsadL3+fcpzmMQViz3+W7bIKb2+KtOUfh7c+Os7a+Y2bMzpt3LPP7/B+444naR9Egjb8sYj0K+Y8hV5PkfntSXIcmc6v9prVlqnUfof7kPvciu4/MkfixtFhbpvfccS8bzjsfujth+de3FwObRtzbuOE+qFtax6Ptt5f5p2jaN+S0cfJPa5Im/brsbBj7NaJbSvT8WnvHTq7Xy53nOV4tT4mYY9Lelm6T/F9tMcm0seErxN7XbPHJTS/vHUFCO0cnXqg/yg/uLNdczGO7ZSuu9vR54eCN5P7PXZWebtBryukrVA/YjC0S5fGDxfgjgX+d7FlDOykZA/tuo17Aa9LwJZ6pGDmx2MGAV8q9Ev0eMwhuONdqRT+/rD9pnvHF4RlQWjnPaYzqOf3JxXInYcT3fDFKe/O9UOaIbj/I1mwDvPdu6Ws/Wt3F4ZkPmYqc80K7YbgxBEM7YgoswM6dcCcc3eNhCqYuDvw6T/kN0jpS5agTDXtaOfX/Vt+AwUs//1rxjv/tIDMtOaFG/2GCle2rv0Uy+8+Ex8P3U7dp23xyK9g8yfuXwOlLzKHZC5Z4/ZIv13RxZl72pwsCvMDWEqWD9sp3gct/UN39AOQ+mFL+wClXUywPyD5vA9P+ge0yIdD90NV3IfZcN24vqkf1hzusbn9DKTrxG2TlmEcQ2Ph70f5UBneh3XcjtB2seOgjIHR77h9C23/eR+P/+HX3t6tG5yTXI4hyXnMODfS4tpLep5Cx6D87LWT7pfez5ixada5seeMXi/SH1eyMc93jGLbU0TGM+N5VfodObYY1rFo1ONLMrcd8cccfl+NG0PzWOLqJD5vkfdyfW6E68XVcSQYuwh7mxzOa/blScVsrxyPPpeSj0nsXFTHwWwzbh/hvsfPiQz7ViW/0Omy+p953mc7X/6+7TrK+QiL2S6rHI9V+OdHnx9eH9KsMXePI1wn3V+tL9nGyz63eRxPRII2Mr3nKduZfQzPB0PoHNt98H/OMIfteRe3TOXuO67tYN+5zq2Y14K5nwzveWbd/I4j6XtTXL3wOYg7b6FjipkXccLjEZ13ofmUte3gPGV6n9Doxx85Vy779VjIMU7aliY6dnHizqPL3Y+MoX3c2Xh9N9/Xoq+X+D4W6nViryvYuPhzT85BYUI7sfeh6HnJUFTX+GFdzUgMuqAnDt07WjfzIzKTSfpoTFGxoZ0j8njMFW9h2JlDMOzPH6I2S2CX6fGY4bIOrz8UPFrSCrDOvBMTXliId+RRgv4jBqXkFtrZPwfC+woejxkOT5RAzT8G88658LZ6aJftTrvgMZ7Uytz0Bj4IXgP24zH972sM5q58h537mjhTwur0fJYAnI/HJKI4+zgm994NTVaogjHbAguf8d9ISlyc9zvMuSjcnySmHwMsf89vpEDljXv1ffm0kMy0/L6z/YYKU7Y2rsCyO3okDuzEigcvRJOMaUsUmUMyl4wxaxr9Odz2k93U+Vg0WT/geUIfiAMZPxhHPwDZH7bcn40PbWFmn/y2/HWR/aU+PDpCH6SsD80ZjzVcN+5Dmf2hz/vZ2a9xnHqdDB9sM41jqM/hcYhK7yM01nb75ngpQmOQajPzB9pw3eQXFHKZV6FjyuUYEpxHb58JXwfK/jxZjitYbvZHO78Z5pLez0KcG+u1ElMv0h9XeNtCj1HcOdRkHl9buN+57Cdzux71+JLMbUd8X8xzneT9INPcUM5b1n06P/vHoO/TIfVijtOVYOwi7G1yOK/Zlyfk7lM53oAxxur5y2FM9NdZtF60Te8Yo/swjz2X94vs4ueNImP/7b4nO19ef5POjbTIdlllHrd4/nb26zuHMY7S+pJ9vMLvSfkejylBG+45tsfZ387pr84bG7e/6noRtBk/FnH90uZs0nPi1ssy33OfW9E+RfqjjqPHrJvfcdivPYP5evJfr/r5cPjjHW47Ldy3ZK/vQOS4Iv0yxib0vhInn/mvj5M+5vbxFXCMMx1fgve/pO/Z4fcLjXdM+Yxh5vMef24K9Tqx14nCjYvX/8KFdjnY7Wjv4nRzSBta25pKDu1E8J1rqeIGd+dlCOyAxS8ogZ3wA6zFby5wH2d5/+OP45ILzTpmSDYEN70rF7C8x1BOv/senOvf5VYOoZ1551zG0C7hd9qF7/CjVufM6zHsZTmX5h2mQ3Di5LnuXJfHtKZeE5cvwAdOzRVv1uLcYenvVWwueZ9iaEfUNl1x/O7YNGqbULDimne1+zukRcq/ns39bjtx9/HAyv84DTR57TS3PDlA349PC8lMSycdjqbN9rMF8itbVnyEz6adou4njtxlt+Efzli2VJk7PDJmMtdkzmlzsWgSXuDSP6Rk+BCqfOhSP2wl+IBk8j50xX3g8z9Axl0UyPBhzq4b17fQh76YD872B0P756gM42idn+wfFn3GdpFjyTgOaXa/M+07XDfb8WRpM2ZcQ/Mnl2PIdh5FM9uzxY1V6BhcxrxT+pC0n80/N+H5H1cv0h9XeNtCj1HS9kRkfDOe1/z67Up6YSyfue2I74v3vhr0OW4MTfF1kh6//V6uz42wDHUS/s4JsbfJ4bxmX55MZG7Z64zXhT6WOYyJ9T4ZWy8yn+L2ET72TPPG7bu27zi5nM9I3fTciu436fmy6iXuT9L2A9G/aRKz+pTzGEdofcl2PN769NxoxvGkJGgjj99Zgfj3JJPeB2+M9XmgvpZj3pvDvH3lPCcTsPsUmSMZ3vNC45TXcdhzw+DO3aAfGeoZ4s6bfUzqeYgRGQ9jjCPtJBqD3Pbv0Y8/2jdhz4FCjnG2trK8/yV6j0zSj7hjz8QeF517bpT3h4K9TjQFHBdpq0VCO7HLj8eFQrhcyLZam3EqPbTT747LXGIfBakEXmFmSOY9XtAM2y7x71zKLbQbgukfSqWYx2O+8bD7c9FCu+/eiEcXyRbRuw/3G70A70jwufFD3HRmejm1Qu530znz6b0X1HDWdsmfnbm88WNMH6avz4e8TzG0I2qbftD1G1g/Qgnt7vqO/IJpmbLJ+d330E+jfUpCvkPtgxeApuYGd872tx2g78OnBWWmJTUdsPmTt/328i+bl76LZVN65nSHnVh+90/RJGPZUmXqtyNjJnPth86c0+Zi0ST6kBL3ASrDBRvlQ3PkA3LCfdviPsy5Qh/Y7A+HGT4sWn2J+3AX+oCoXhjwx8T4EJn9Q238OLrHavcr0Qfk4KLMaOvijEj2odneV/y+7f577ccejzGu6rmMueAS3jaHY8h2HkWGD/ohzXq9RI9fBH0crfQ1aT9zPTfRCw72eOr19P1Y2xZ4jILxsc+hJjq+GeZJwte8KsExqseXaG4H46y0b20ff97TYuu4x5DgvPn7TB9L/PtVWvL3tEQifUt+XtMybJNVlm218xKZSzmMScwxROpF5pPXT3t+2f2PnzdJzq3N3ybJa0c7Ln9ZndNGeHyTni/rmGPPvy1urOLkMzY+t0/p8U7yus1M60um8dLOUTOOJyVBG+4cjZ6PRGOQ6FzG9UE7Zo/9fhtanqFPyc9brnMr2qfIvvzXevT8Ro8/9+Pw+qudx3C/ks0Zt31lfJMfU5Q29t5+nPcOe6wj74uaZMcSpp9XrW/R12Mhxzi+jnfuE75mlHMUsOdjnLhzHc8eF52+f38MjeXJ51QO41qAcZH3rhYL7UQ+wV2ugZ1gaNdSoZ0ffmEdXn/6BUx/7kMs9r+2MLX9mX79jUsx/+m3cL97h1P0zrr9JvvhnlOv/rkFuP+5hd5dgkZoUrzQzjHMace/K7Hxk4/xznuORcEFOme7ybzLrnXzg9ktS3G/P59Oue8tvPPhQkwPguKxL6D+k3X44NVanOJu482TRmdueT83n7xPMbQjapv227cDPr1qu0i4grHOssZV3q+TligrPgCu/Xy0X0lMag+8N9dvKM+y9E1gjBJmGrSgzLRo+P9g/Ruz/QbzKxvfq8Pi6j2c9raJtJ/JomGfx5bP5H/5aKEic0fmkDVmMtdkzmlzsWgSXuByP6hoH3b8D0jhdfqH0+iHHf8Dkv1h12lzdvCBy/y3K/yBb/Rs5UN8qj3lw6F7vNYy5UNe3AdRrX3zOL314WOKfKjUaP3yl4XPT/RDa1BXv5CgjK+xLryNcz5mp9uN9ls/X+55DS3z+2i1r+1TnVf++bCPx54/iY8h63kUylxRJZizjrjXS/Q14PCPN3osSj/dutrrNbdzY+8nevx6vei4CXvbAo9RwvcooY5vM1/zqgR9Uo/P32/SuR3ujzfO2Zc5Qu8HGbZzZD5vwTKHeSzamDpC78daHX9ZaOxi57RBG2+tfeW8ptnzNC1uLga885Gpj/44+W3EzqWkY6Kds9ixM+eTt13213fC94sk58YVzCfrNS+k38HYusdgtxf0xV5u9Vn6EhlTf9vIOFljlGC7bHPAPscaOe+R+aXMSW8+KWOVmNYX+xz7/P1H52P24ynEmMTPIX/O2P1yzl96/vrt22PltJn+XZKhD/5rJtv7bVqwv2h/vdeGtbxgcyvap8gcCc6j1Qe1X7keR+r1Gx4rrw/W+Pljas8z870/7v1Pnfd+e9r4SF+DfeuvmZj3HX+szG3VOWBt5y7LeJ68/dltZepbepwKO8ZqnWAslfMeFTN2Ma8581yk+PtLLY99rZvscYmhHJ93zhwFe51ochsX2X/kWPw+tGhoJ+Qxl0m+407q5PJITFPFh3b3fRj+XrusxXw8oCWn0M57BOcH691NgBUf4o4X7O3l+/WWotEP815/RJYpoZnjlPvewDtucucV+e6xO0anw7Kihnbiwntw/3vrUn11v/9skdOHGxjYtQXe9z9uwgcvzHXPc1BS32X4uDdv3LLmY9S+7Mxb558rXn0Y3ay28iXvUwztiNquOefuGglXXH+7z3tvaanypwnA2B30vmVTs6O3/dolfmO5lCbg2aF6uwYtLLOtnHM5sHWz327ysrVxFdbVT8XiMe3UdjMatgPWzHOOvSWLzB1lzB4/b1d1DhaV+8Eo+weZzB9m0x9GA9oHMrcN5YN86oNYivYBLE39EJdifqCK+XCotKl+CE9y0cFqS/Zl14lsEyf1gdsn462en+DDo0Hpa6pvcefN3p8jejEh2u/ImEf27Y377Gq7n9F5ps4rv9/2OVHnT5JjSHIeU8u8NrT5a8o872KOK1ge6Y9+MUBE+umOTfzrNdKv2HNjLksvTx+3Xk+fE/rrrHBjZM6jzO9V+vg6mvGaVynzLhC0qx5fwrmd6ov2nmBs50nyfuCdo3QdORfaedNes/6ymGNJ11VeN1r/3WXp85ho3K1tUhKc1zR9nsbN9TT/+LP00XtteH3MeEwJxsRlH5tWLzKf4o5FP3Z33gXtC6vPOb0mHN4YWG06Uv2JOY/udpG5bfVZOdcue7uYMcq8XbY5IJTXWcAfo6zH7/PqRd/vk9Nek94xRPcfHW9PzOs6JYcxiW3D4Y5/lj6Y/VXmW2SehsYuUx+C9pXfPZnmtf0aFVr7BZtbMb8DzH6nxtE+zxnmUdLjSPXRPh8x5005bvO9xe27Mr7x816ZB6503bhtZdwi7+l+/1Jjrp2nSP+SnCe9jt43r266b4UdY5d9fuXcxrzHxvH6brThiOzHEX0NivB+4s57mD0u8ey+ybgX5XWiSDouWj0hfW3x0C6w29HnY6ez7vQCvKv+5pJ/yzJZp22TVMWHdvK9XCPuxLljPQMfWujdtZYq8tjHe1Lrzx1hfHcXUcUYgnOfluDOKcsW4qbR/t1379a66ye8uQlY9ApOGT0Xr0uo65TFLz9Q0NcKQzuitq3/MV9TAxbMOsN5RynQ98PlU9YsBqYdrfctCblT754TgY/+4jeYsKz8EPjNgXqbBjUwsywZtw+2rvvMbzhZ2bTob/js96dj0VU7q21m8+lvjsaWVe7zs1uuyNxRxuzSY7+mzkGi1kW/sEFEZFMvupaSe5Evtwt6laLFz02pcA5EcUwKo1WMI/9m43xvvrL4feGex+ShZTGVTWhXTAztory7iqREv6eNqHINwcDJ96TunHPvwFy/0n0c6uL1clfdA369GzFq+j0Ff90wtCNq2zrv0wFrr9k2GrLc1sULzlqyvPkQULNTtG+5kMdcvjDWed/8LPt33cn6v9wKXJv9Dj8tMNOsevIqp92t/g5iirPfpo1rsfbF27F45FfUdpJYdOVOWP/GLL/RFioyZ2TuWOPVOHIb7N+pxI/GJCoKXgAioiTkvaJlL5TK/ylfEcFUzlr+3JQK50AUx6QwWsc48m82zvfmKpPfFwztSouhne6UqS9g+nQGdkSx7luIFes3odG1DvVxj40tEIZ2RG3f3It2joQsuP7LwMJn/CSmhcqWTcAfLo32LVdjtgXuPAJ4cSLwcQOw1WlXK/9+Ebilk96GRQvNNIuG7YD1rz+oPyZz6xZsWvwm1v7pViy9+Sh1+1ysnP1zNMmYtWSROSNzxxqv+RfvrM49otaHF4CIiIiIyh//ZqM2gqFdaTG0I6LWgKEdUdtX/YOvREIWN+h6vjr7XWLFLhtWA7/7XrR/+ZBjmtQeuLsH8NIk4L+vAOs+dSwDXv4NcMM39O0UWmgWZ/Hor2PNvPHYumYptq5fgc2L/oa1L92Bz373Iyy5tgMWDfu8ul0uPr3te2iSsWrJInNF5oyMszVeY5w5ps09otaHF4CIiIiIyh//ZqM2gqFdaTG0I6LWgKEdUdt32lHtsOyq7SJBC6Z/H9i03k9kWrB8WAfc0C7avxakBWctZfGYdtj4njNGLV1krsicscbqM2dune7MMW3uEREREREREVH5Y2hHRFQmGNoRtX1dD9gLr1y2YyRswbhdgKVv+YlMC5YtG71HW9r9a0FaeNZS1jx3PZpkjFq6yFyROWON1asDdsQ3D9xLnXtEREREREREVP4Y2hERlQmGdkSV4benfzEStrj+0N9PZFq4yHfCze6j97EFaOFZS1h+9xn69+W1RPnDz9WxuuuML2IfZc4RERERERERUevA0I6IqEwwtCOqDL27tcPW0dHABeN2Alb/109lWrhsWAXMOBYYs020nyWmBWglNWQbfHr7sdjauNIfnBYuMkdkrljjJHNK5pY254iIiIiIiIiodWBoR0RUJhjaEVWGzvt2wKvaIzLFSzf4yUxLlybgv38Fbt5X72cJqUFaCS0Zty82/ccZCxmTcigyR5RxkkdjytzS5hwRERERERERtQ4M7YiIygRDO6LKceHRX0eTErxg2tHAuk/9dKYMyr/+CNRE7+oqJS1IK5VFV+2EDf90xqBciswNmSPWGMlckjmlzTUiIiIiIiIiaj0Y2hERlQmGdkSVo2q/Dvjn5TtEwhdctxvwzyf9hKZMyht3AxN3j/a1RLQwrRQWj9od619xjr2cisyN674UGSOZSzKntLlGRERERERERK0HQzsiojLB0I6ocuy7T0fc9pPd9LvtHj7LT2jKpGzZCPxpAjB2+2hfS0AL1Ipu6PZYM28CmuTYy6nI3LDGR+bQrc5ckjmlzTUiIiIiIiIiaj0Y2hERlQmGdkSV5bSj2mHpldtFQhhc+3lg6dt+SlMmZesW4KmBQE3Md/EVkRqqFdGiK3fEykedY5VjLqcic+La6PjLHJK5pM0xIiIiIiIiImpdGNoREZUJhnZElWX/Th3w9AW7REIY1909gM2NflpTJmXrJuCPVwI1O+t9LhItWCuWRVftjFV/cI5RjrWciswFmRPK+MgckrmkzTEiIiIiIiIial0Y2hERlQmGdkSV5yfd2qlBDGp2Av7xuJ/YlFHZtA544hK9z0WihWvFsuKh/mja6BxjuRWZCzInlPGROaTNLSIiIiIiIiJqfSoqtCMiKncM7YgqzxPn7aqGMXjwNGDDKj+1KaOyab0X3I2LuUuwwLRwrdAWXbULVjx0CZrk2MqtbFgNzDpdHRuZO9qcIiIiIiIiIqLWqWJCO205EVG5YWhHVHlO/eY3sOwq5bvtxn8BePdJP7kpsyJ33D03siSPytRCtkKSR2KufnoUmuSYyrG8+5Q3F6xxkTkjc0ebU0RERERERETUOjG0IyIqIwztiCrPAZ064JF+MXfb/eZAYMtGP70ps9K0FXhuBHDtDnrfC0QL2gpl0bAdsKrWOQY5lnIscu5lDijj8rAzZ2TuaHOKiIiIiIiIiFonhnZERGWEoR1RZerz7T2wbsQ2ajiD56uBrVv8FKfMSlMT8JfbgF9/Xe97AWhhWyEsHv11rP2T03c5hnIscs7l3CtjInNF5ow2l4iIiIiIiIio9WJoR0RURhjaEVWmTvt0xN19oo9AdE1qD/znJT/JKcOyZRPwt/uL9h13WuDWXIuG74L1rz3g9b1ci5xzOffKmMhckTmjzSVqXTp0PgAdOu2vrqOWIedEW05ERERERFQKDO2IiMoIQzuiynVg5w749+Dt1ZAGD58FbG7005wyLf9+Ebi1EzBmW/0Y8qSFbnkbsi2WjO+Mje87fS3nIudazrkyHv9x5ojMFW0OlYOvHX02dj5vBj43/E1KYPuBz2HXs+7A179zmjqe2XC8C0/OiYypjK025kRERERERMXE0I6IqIwwtCOqbFed+FWs1x6TWbMT8Pp0P9Ep47LoVeDuE6L9bwY1fMvTsiknYNNHTh/Lvbw+wzvn1ljI3JA5os2dcsEAKT+f//kT6nhmw/EuHhlbbcyJiIiIiIiKiaEdEVEZYWhHVNkO3X9v/Ll/NKxx1ewILPm7n+qUcdm4GnjkHP0Y8qCFb/lYMfMcbN3g9K3cyyfOOZZzrYyFzA2ZI9rcKRda+EHJaOOZjdYOFY425kRERERERMXE0I6IqIwwtCOiM7/VDmuviXnE5D0nAWs/8dOdMi5bNwMvTgRu2EM/jhxoAVwuFlfvgTXzf+31qdyLnNt7nXOsjMPaa7Zx54Y2Z8qJFnxQMtp4ZqO1Q4WjjTkREREREVExMbQjIiojDO2IaB9HzclfRpMS3LiPTHx+jJ/wlHnZsgH4YD7w227R48iBFsQltfSmbti4cD6aNjt9aQ1Fzq3yWEyZC+OcOSFzQ5sz5UQLPtqi/o9+rC5vDm08s9HaqVTlck6yGjQDdS/Wo95VhxmDlDpERERERFSxGNoREZURhnZEJLp06oB5F+2sB3djtgUWPgOgyQt6yr00rgAePgu49vPRY0lAC+OyWTTs81hx71nYut7Zd6sozrn81x+9c2sdv8wBmQsyJ7S5Um604KMtYmhXfso3tKvCRdeMRr8jvZ/73D4PDfNnYuK1EzFzfgPqpl7k1zsc/S7sg6rQtkREREREVGmKFtp1OvIU9B9eg+EXHIsu7fU6pcLQjohaC4Z2RBTo3a0dFg3dLhLiuH79NeDfL/qBTysom9cDr00D7uyqBlOZaKFcrCHbYumNXbHu5Wlo2uTss7UUOZdyTpXjlznQ+6jyfyxmQAs+2iKGduWnPEO7KvS5bg7qGxrQ8GItpv6qJ0bPSgd1F02tQ8OTE9HzR4Mx41mnTkM95lzH4I6IiIiIqJIVLbTrcekETJjgGzUIfbt3UeuVAkM7ImotGNoRUWDffTpi+IlfVYMcVG8DTOsOrP7YT31aSVn+L2DOhcrxxFPDuRgrHrwQm5c5+2hNZc0i51we7Ryrc06V45c5IHNBmyPlSAs+2iKGduWn/EK7dGA3b9pETK2tR4OEdy83YPYov86o2d4yR92sGgz+tdRncEdEREREVMmKHtqNHD48Fd5VDzgFh+6t1y8mhnZE1FowtCMi2719v4DNo/RABw/2Bjas8tOfVlTeeQy44zBg7A76cRm0cM60aNgOWDrpMDT+3WmztRU5d/LoUOW45Zzf55x7bU6UMy34aIsY2pWfcgztBt9fj4b5U3GR+/Ph6Dd+NubNm4HBx/h1jhmMyY/Odu/Ac38+sQZz6hvQMG8y+qXaISIiIiKiSlL00G7ACe3QpXtfDBrl33U3bjj6n3Qo9lS2KZaWCu06770Hzvv2lzGl96746893wKdXbosto7dxyb9lmayTOlJXa4OIKgtDOyKyffOAvfDCz2K+30480d/73rjWVlb+G3jpBmDyQfpx+bSgLvDJxCqsfX4Stix32mptRc6ZnDvlmOVcyzn/5oF7qXOinGnBh2c53vYPPVU2b8Hij1Zh3APvpuqd3LABKxo3YOZse/vkfrdUGt+A3ynrxJD3tjjrt+C5J/X1SUQCookf4Bd/XIzTbn4rvFyx060fYcgzH+O7NeHl2nhmY24f5o/30uUJl+sKcT7yETqHT66FvMOteG+xWjdgn5MvTfkYI575CF2tcdbse/dijHjiA7SzlmtjnpOqwZhZ34DaW3rr60O6Y/QsuRuvFjefrq0nIiIiIqJKUJLQzl3Wvgu69xmE6uCuuyv6onuX8DbFUurQrmqfr+Pak76AjaO2ByZXAU9eBvzzKWDNYqCpySP/lmWyzqkjdWUb2VZrk4gqA0M7ItKcdMQ3sOaamO+Ck7vVnhsJbJUgopWVpq3AumVAXQ1w7Y7q8Wlh3aIrd8SaP9Zgq2wrbbS2IudKzlnMnYZyruWca3Oh3JmBR5gfFq1eh5mvrXSswnNLNqPRHY/NeK7WC+6GvNv8QK3koV3N+xjy5kb3WBb/+zOcnSG42+mOj/G7j7z9v/3aInQdnV6njWc2ZtthhQntCnE+xNl/bcSKzc55TthOc0O7nSY747zI6/trzjjbAanpoFnLsGC1U3XzRjzyzAf4krFOG/NcHH58LwyeVoeGhjmoCe6u61iFXpfVYOq0qai5rFf6MZi/nOE9SvP2fuheFdQlIiIiIqJKU7rQzrfnoT3Rf7i3bsK4agzq0x1d2ofrFFqpQrv232iHc7/1ZWyt3g648whgrftpM1mRus42sq20IW1p+yCi4vnWSV/FzCK/H2XD0I6I4pz9nT2w9Ernbwwl5MG1nwcWTAI2rff/sGiFZc0S4E8TgBnHApPaA2O9Y3WDuqHbYcmY9lh2+7FYM28Ctqx26rbWIudIzpWcM/s8OuQcy7nW5kBrYIYhYXpYtG+tF8hg9RpcbCxvjpYI7X7xWqN3HE6JC+7cIMkN7JyydQsW1H+Mg8o8tCuUXMe82aHdrR9h8r83SyNO8YM7Y6wD+z6wDM9JYCdF7ih88n3sZKzXxjyRs25G7cved9U1vFyPutqpqUdi9rt9nru8/kXvO+7mTbnIC+6OGYyptXWoD7arr8XNZxltEhERERFRRSh5aOfZE4f2GoDqcX54N7w/eh66p1KvMEoV2j3Yd2dsve4rwKLXvLvpci2yjbOttCFtafsgouK58+c74u/H6utKhaEdEWUy+PivYuXVMXfcSQj0wtjWHdzB+Vto3afAf18G/v4g8Ofrsf7569H4+oPY9O+XsXWts07qtNYi50bOUUxgJ+d2SI+vque+tTADkbD4sGjSIlmxEY9Mi4Y7Xf+4Bu+7t+N5ZcW/l7nLj39uDd5ea8yFtY2YfLe3TRD4zJRtN7prnfXOz3P8u/kiAdKHmPTeRqwIbtps3Iin/Dv/4tiPYvzc6H/hF3I3md/E4g/Cwd1Ot5qB3WYseOmjUGAntPHMxtw+LFlolxqL+lV4OzVW6bEMj1Ww7SpM+sAPxLY24f23F2Nft+1/YcQ/jHGUYLIuOB9GaVyLIcM/wLi3N2BFkKs5ZcVHn+Fkv5/NDe1cN37knNf44G7fmcvw3Ep/tXPMv5sTDuyENuaJnDcVdQ1zMPEH3dN30rn8x2Ve532HXc/ratHQMBujQ3XkDr2JmNNQh6nnhZcTEREREVHb10Khna9Ld/S9otoL7hzDL+mJqiLc5VKK0O7ZC3YEph3jPfYyKP99Bbi1M/D8GH9BtKx+dgw+Gd8ZG//t1A2KtOG0JW1q+yqsEZgl/yeno+6Ovsr6PJ09xfmg6v9fos4HzilnK3WoDTkIfa+dhbnB/xk89zHc9ovjlHrl7Kv4+/WfA37+VWVd6TC0I6JMOu3TEZN774ato6OBj0vCoJcmuRfLWcqsyDmRcxMT2Mk5lXMr51g7962FGXiExYd2ZjAUDomW4TUJgBobMfmJj/CLl9Zi8Ud+2PSPDXj7zaX4xayPMMJ/NKW0LeGRF/g0oXH1Bjzy/CKMCMI0Nyyy9/Gu/3MT3n/zE5z9xGdYsNb5cXMjJt0Q7qcpEhCJ0Qtxcf06LPZDqyC48+76kn04RR4FWvcfP+QK08YzG7uNtFxCO6fIXWbPLMK4f/hjucgLR8Nj5W8rY/XeZ/jFM8vxmowVNuOpWc76P3vpqoRvv5i1CJPf24zXGt5E17s/wiT3+CXE+whnz/zAOf7FeGqpd37OnvUJHlnmBbBvN3hhaUFCO3HDfzDuXf+YnP2/1uAFd+HAbh0mz/5XJLAT2pgn0qzQrgrdf8DQjoiIiIioUrVsaOfrctz5GB7cdTdqEPp276LWy1cxQzt5jKXcFYdpRwPrP/M/+fnluVHehZjffc9fEC2f3vY997FPq5926ppF2pp2jNt2vo/KHPFQEJpZ5k9B31S9IoR2ocBOlEFoN3JWhr70xZT5Zn/LpM+tSN/fzEXD3Gm4vNdBzs8HodcV0zD35bmY0q9zpK6t7x3yPR/BuM/CCHN9hvA343b5+M5u2HCT83odvxtu0dbHCPfDEXp95Y6hHRFl06VTB0w5/YtoHLlNJPhxSSgk35fWGNzzw9LiRc6FnJOYwE7OpZxTObfaOW9N7NAjrZmh3SMS9LyJfW/Q7oBbjOcklfFDOS/w2YynZqfrjPu3hEJOu0/EBFGLPksHaX749PZf09vb1IDItRBn/3ltOrj79yo8Etxht3kjnnruQ7RTt2vZ0O61l4JxDY+lOlbGo0z3fc27Pe/tBudnI7S7eKq0965zvrx64XYUVjBXsNBOTPwwHUY6fXj77ZVYsNK/S3P1OkyatVDfzqGNeSLyeMx6/29D+/GYt1mPx7zdfzxm1WjM9Jd52/HxmERERERElagsQjvX3oei5yXDU3fdVV/RG932VurloZihnfsddtd9NXyHXVC2bAIePRdouMtfEC1r6+/C8pnnoknq2mXNErdt2Ye272xiQztXEHLkH9oF7dvbpUOMMgq+4kK71PIYD40It0O+43DZHY+hLvVdHU9hwnHhOseNf8odv87Gsqi+mHJHeozdOZUac29uzhrp15VzlQrEnHXGuXHnXDPDsuvO3xGQ0O6mHfHKt/Q6Gtl3Ie9SZWhHREkc4Ad3m0fFBHdjdwAe/xmwYZX/RwVLixU5B09c4p0T5VzJOZRzKedUO9etjRZ8eOJCpHfTAc0N0XDn5Lq16UdcbtyIp/74L3d51ydWYsHSzVixsQmNweMYQ6GdH/j4zHZD+/ADIa24QZTRhik+tBPv4jSn34uNRz9K3x/5Y3xgJ7TxzEZrxxMz3jesxPuyfIkZ2plhWoLQzmyzYYMs8cfKe8xocD4al6/BiMleveh+/oVfvLYOb6/cgkbnHAalKKGduO4DjHhzgx/c+WXlWkyamfkxqNqY56Squ/8ddvWYOShYXoXuFw5GzbU1GHyhcSfeMTWY4/ztWzdtMHodf3i6DSIiIiIiqijlE9r5On23LwaN8u+6Gzcc/U86FHsq9XJRrNCuap+vY2v1dt532MUV+V6Wp6/wf3A+kG7egKbNcuXB+3C6cs4V/vezxBT5jjtnH7IvrQ+ZpEI7I8ww7wrywpB8Q7v47dL7KMDdT4WihXahu7jMvobvvEuFRuTrjPPu8O+s6yl30h2E7scfFQ3ngvF9uQ6P3fIzHGSv18h5CsI4898uOS8xQbC7r4TzrcPX8ciAnbBh/OfDJn3OD+0c11vrxu+Ed3t9Hb2U9uR1Vsg5wtCOiJKq2m9vPHburvHBnZh1BrDa/cIwlpYoMvazztTPjUPO3aPOOZRzqZ3j1kgLPjx6iNT1j+vcQKbx30vdO92i4Y54F8fXrsL7EoJtXIcR0/zgafkajHviI5x99yfKnXbed+QF2092XwbeYxy1IKpx0XKcPctpy3CyHzhpMod24l2c/Nwav88b8EjtB/iSWi9NG89stHY8S7FAPnJsbcRk4zGf+77kxVaL3/7I/bmwoZ3vhg8wxH9kaeMHn7jL7P0c/4aXxL7/D+8Rpyf/sYh32gVqnH79zQvuJFAcd2/mwE5oY56TEyei1vl7uH7WaHTX1lt631KLhvrZGH2ivp6IiIiIiNq+sgvtXO27oHufQagOHpk57Bx076LUS6hYod21J30BuPMIoCn9f4dGysY1wPTvA/f+EBi3C5pGfw6LBjuu2gXLpv4Qn07+Ppo2OHXiirTt7EP2pfUhEy20M4MqL2xTwrdQmBUwApGYu9NmjdQeM+kw969sGwo8jH3PGhn0zQtqQscT6qPft1DbVoCTWpcOfVLtqXcEpseluXdwtTmdZWyid9a55LxY43VQrxG4r64BT93YK1xXEQrAIqFdhoBMqZvZHrjz/J3TIV0mk3bGK0fvobThSc8jkTA4zIChHRHl4uD99s78qEwhj/D+z0vyR4X3twVLCYoz1jLmMvbaOXEEj8SUc6id29ZKCz48fuCzeh1mvrbSsQrPLZUgR5atxRD1MYrLsWCZH8w98Rlek7RFQrsn/Lvjlq/CiFnG97CFQjsJZtbhd+b3tC1bieMj+/gAv1sir40tqe/I+8Xzq/DaklVuW9Hj8GQP7XKnjWc2WjuBIe/649u4Ac/9bSUeeW8DVshdcJs34Hd+oFnQ0O6v61Ih3C9e8r5HMAjtfuH3RdZPfm05ZgU/u98juBRP+d9pV9TQLg/amCfXExOfdP4+rJ+DGj+E6/mrqZj96AyM7u3XOXU0ZtTOw5wpA9HT3eYiTHU+T9XPHu3/TERERERElaY8Qzvfnof2xICRfnB3aQ+1ThLFCO06770HNo7aHljrXxWwS5PzifjJy4CanUMXaILQTr7HLrDoqp2x8mGnrmyjFWcfsi/Zp9aXOKGQy1+W6E47JVjzaOFYWrbQLhxuhGUODO3Qri5aR1tmhjiR0M7oa0wol+5v84OYNkUJ5rKt6yzj/9QknGQtdxnzKRrgGoGqPzcioZ1dLwcDenwRq8w77GzVX8T0A/RtNYV4TCdDOyLKlXwP2p2nfxFbnb8xzL850rYBbmgHfPC8/4cFS9GLjLWMuYy9ck7kXLWV77CzacGHxw98jNLYuBmvvbYIXY164ZDoEzy3Nh02N67dgJlz5O6oDzE5+J44pyz+YJUX6IVCuw14pGGD8ajGtZh0t7YPxw2LMHPJlvRjNrducdpc5gZ8Qb9srSG0cx9X+Y8NWGE8pnPFykZ/DL06BQ3t5G65YF9bm7BiyUr8IrjL724/dJWyeg1+IT+v9X/euhkL3vRCvrYV2nVEz+rZqG+ox5xfD0bNrPTnsNrrunt1Rs1OLWuYPxs33z7Hqd+AeVMvxeFWW0REREREVBmKFtp1OeF8DBrZjNCufVX4O+7O+45eL4FihHbnffvLwOQq+TQZLXJ33ZQj1Ys0WmgX+OTGI+PvunP2db6zT60vcTKFZOlgQQntbH5YInXSgUn8durjMY02zPqRYMyoZ4cf6bpK8Obw+hYTxkVCu+x30jG0i5HjnXYiY2hncMdcPW/e8inOejO0K0RI9q0DvoJ/X++8Pu3A7oqvYEB7fZt4Mv/yCxADDO3o/9u7FzA5yjrf4wrknpAbIWMCSZiQQKJBEkJAAgZNmKw4kRkMm0GSQCQTkijRBDIkzpAhJobIGThZcciNUTiCK2Y5uoAeb7CbVXGBHH3UXW/neM7u2RWERVkFBeXyP/XWrd96663q6p7pnu7pbz/P58l01VvvtXoS6kdVA8VQ4c+nm0fLf24/zvrvD9fO40X+bqf7nbm8SvR6yZlbNcdqrm1r4FBrpNZqIAZ2ii34GIiqI7SrLZUY2qnvr2v8uArunH/Lfv2zsuW93t133/v8Fnf/9fd8T4498klpeO92ud//b5hvdX8w9z13AAAAAGpOyUI7z2SZfKpte7qZC43vtbtktrVcVqUI7Q40jxB5eL1/hcZ4PbJR5NaxIk/eJfLUAZHut4YXaszQ7pnOifLiY7fJH568R5697W3ywoPOsbaX05Zq09aXJEmhXTRks4VvWqBlKDq0i4VmCdsTwj0lHI8W0mTdFm+fO+2Kp32nXeOs6D5LaDer8SPS881sj8f0zquk+Y7uU+eZeY4UZeo4+Vfb3XZbxslyW/lUqo+EdgD6x2nTpsrmd58kz7UlB0aya4jIvUtEnvmB/w8MXn32UnOq5lbNsW3uHWpt1BrVO2tlW8OBwBZ8DESEdpWnMkM7ZbasWLMyvHPug4ec/1Y6+lU58sAR+epR5795Dn3QL9cg6zesILADAAAAalzfhHaTZsuiD1wvHbv8oG1Xh1z/gUUyu9C7VOrPl5aPdoZ3121rbZA5RYR+plKEdk9eN0jk51/xr9Jor+d/7n53nbzwf/0NzutPL4ncs8S9WKOHdr/efZq8+vwv/UIib7z2qvx65yny6rNOHebLaevJ6wZb+5LEGl7FmOGbfvdaPEgrNrTLbcse2ul3VCl9G9rpoZwtZMmNr7DvSqsVF8uGfV+Sbz7hzI+a5+mr5VN/3SMbPuSFdhs+1CMP3Llapqv1fOKofGnfWpllq8fZfyDjnXNqvcJzzRIOFmvB0pG5oO4253MdBHhdI+X+vL/DnPNEOz/S+p8VoR2A3lr5jony4seOkzeMwChCBUvf/4zIq8Hz6ngV/VJzqOYyJaxTa6HWRK2Nbc0GEjP0GKgI7SpP5YZ2hs2flaPf+Z58z3VUPrvZUgYAAABAzep9aDdprrS0+WGdqa1F5mYK7ibLnKXrZNtu/7ibN0vLO+ot5YpTitDuP9qOE3nxGf9qjfb6fo/I/rP9N9pLhXgfHxIJ7V7+2df9nbnXb++7Sv7wj04d5stpS7Vp60sSa3gVY4ZvwXstyAoDr17caaeFcXr5XHDmly1jaKe3Fb2bzvbYTaSbLqvv/KYce/xxeVx54ptyYOV0SzmTFo4qkXM1ug6R80w7J3XFrNX9m5zP8h1vklfaxsitU+pkyYIx8uytb3K2HSe/WGo/Jiet/8UhtAPQFxrOniR/v3aYvHqz/TvVXLuGihy5UuT/fdf9TileBb5ef82bu79x5lDNpW2OHWoN1FqoNbGt1UBjCz4GIkK7ylM1oR0AAAAApCgqtKtfsk46tl0ri+rrZOEa7864zg8vy90Vd+ocWfZhf/uahVJXv0iu3dYh65ZYgriZi+TqbX5Yt7tTNq9YKDML/h6pdKUI7V7b8WaRN3JfjB++vvWxaGj3x9+KvPJ77+dHPhSGduouO/V649WX5TXtu2V+e98H5PdfdeowX05bqk1bX5L0LrSzy4Ui0UBF32cN7Ry5gC4uDGTKGdo5cn21MwNJpPGDu2NZA7sKMGm8/HjvIHn2LyfIEn37lAnyrbZBIhvGywJ9exkQ2gHoK+eccYr8txWjrEFSRNckkcd2iLz2iv+PDl55X2qu1JypubPNqeZzLaPctbCt0UBkCz4GIkK7ykNoBwAAAGAgKCK0mykNG/1HWN7cIZ3q7rid18oiM2ibtEiu3ekFcR3+99N1bmyQmeH+mbJwxWbveFXXtnXSMGdytI4+UtbQ7rGbRT4xKrfv0Q6RO6Z6P//yW2Fo97uHbnQ3/eae5fKbe/9S/vQv33PfP3vrDPn9/3DqMF9lC+2cbeYdaElBWqRc/tAuui9gPJqyzKGdxxZUxvuOgWfBhWPl2xdOtO6rq5so+1eOlf19/D8R5ENoB6Cv3XTJePnVjSekPy5TufNMkV98ReSV3/n/+OAVe6m5UXP06Vn2OfSpuX7amXM197Y1GaimTD/DGnwgG9ucpmG+S+uE6x+1zjsAAAAAlFKRj8esl8Wtue+e27NpmcyeOVNmRsyWZZv8/SqwW9+Qu4NuZoNs9IO8Pbs7ZN3SOTI51kbfKUVol/h4zB//tXfB5guXO2/eEDl8vsjDG7x9//a9MLR78e9vdze99N275Ne7p8nrL/9O/vDEZ+RXNxwnf/y+U4f5KuLxmACqD6EdgL522rSp0jy/Tr71wWHuv0P0cCnmEyNFHni/yM/+lu+7019qLn72kDc3ao5sc+dTc6zmWs25mnvbmgxUU+pnyIgr77IGIEg3bPVnrXOahvkuLTW3tnkHAAAAgFIq/jvtpjbIxl25UC7VruuloV479qwW2eZs7/xoiyycqW0vkVKEdk9dN0jk51/xr+Ror5eedb+7TnYeL/Kjz/sb/df//fvcnXZf7fA3eq8///on8nTbUPlV2xB5/UWnDvPltPWk06atLwAGDkI7AKUys36K7Lp0rLz0seOsYVOE+o62exeLPPcT/x8iNfxSc6DmIuV76wJqbnc7c6zm2rYGteDk8y+Xwdc9ZA1BYKcCu7fMu8Q6n/kw36Wh5lTNrW3OAQAAAKCUig/t/OBtz85tsrF1naxLsLlDBXfbpOUs7di3LpJLF86M1ldCpQjtDjSPEHl4vX81x3h957bcBZwn7hR57U/e9kc7wtDuuf86X+SN193HXr78k6/K0zcNk1+pO/Aec461vZy2VJu2vgAYOAjtAJTSNMfyBXXynXVD5Y/tb44ETlYfHyzyNx8Q+cUjIn943v9HSQ281FjVmNXY1RzY5kaj5lLN6RXO3Ko5ts09AAAAAABAPkV9p935Sxuk4fKN0qlCu20tMsdazrN4vQrtOmXj5c4xS8/PfaddGZUitFt93liRT8/2r+wYrz+96H2PXXAx5645It9qd+++C0I7FdC98OCH5PkDS9yflV/vmipvvOIca3s5bV3ttGnrC4CBg9AOQDnMmXGq+31r/7rlhEj4lOjW0SI9F4l8t0vk9//u/+NkAL7U2NQY1VjVmG1zYVBzqObyLGdObXMNAAAAAACQVRGh3WLZGDz2MnNoF9goiy1lSq0Uod30UyfKn3acIPLSc/5VHuP18n9av/NED+10T28fKa+rY2wvpw3VlmrT1hcAAwehHYByOqN+inxuxSj5Q5a77gK7h4k8tE7kuX8W+fMfvScHVOtL9V2NQY1FjUmNzTZmCzVnn2sZJWdOr91HYQIAAAAAgL5V/J12jdd6j8dMDe2myqWbVFh3oyyfN1NmzqyXydZypVWK0E75+NJRIvvPdh9xaX397t9iwZ0ttHt6+yh57QWnrO2l6nbaUG3Z+gBgYCG0A1Bu9dOmyorzJsqDK0fI8zcdH/l3S6rdw0U+806Rv7tF5H99TeTFZ/x/vFTBS/VV9Vn1XY1BjcU2Rgs1R2qu1JypubPNKQAAAAAAQDGK/067uvly1c17ZM/u6+XSqbb9jkmL5NqdTpmOq2S+bX+ZlCq0mz3tZHm983iRp7/vXwGyvJ77qcjtp4YXeszQ7tcfP1VefdYpk/R6+gduG6otWx8ADCyEdgD6i7rr7n3nvEUeWj0iElLldctxInvHinxqpsgXrxD50edFXvmd/w+ZCnqpPqm+qT6qvqo+q77bxpTgYWdu3ndOnTtXtjkEAAAAAADojeJDu0lzpWWbuotuj3SsnG8tM/fKbd5jMbddJfNPje8vl1KFdsqqBWPl9VvHp//f5eqOu79udi/26KHdbz7bnHyHnXq9+Gu3btWGrW0AAw+hHYBK0DS/Tr52zXB5ru14ecMIrjLZeYLIZy4UeWyHyP/+hsh//Mz599C/e48Pf/1V/x86JXipulUbqi3Vpmpb9eEzF3l9svU1hRq7mgM1F2pObHMFAAAAAADQV4oL7SbNleVbvcAu0NHaIHODO+6mzpWG1o7I/j1tLTJ3klZHGZUytJv0ljr5QsswkZ4LRf74G/+KkeWlHnP54wfkjc++S56/613yxx88kPxYTfVSdfVc5Nat2rC1DWDgIbQDUClm1k+Ry8+tk081jZaff2RQceGdou5m++QE75Hi979X5OHrRP6uU+TYQZGf/a3Ivz0h8vzPvf8BSn2/nKT8+0jtU2VUWXWMOlbVoepSdaq6VRuqLdVmgXfSBdRY1ZjvbB7tzoGaC9scAQAAAAAA9KUiQrvZ0nyDH8RtXS7z5zfL5k4tnNN1bpbm+fNzAd/WZpltrbO0ShnaBb5+zRA3ZOuT73NRdTh1qTptbQEYuAjtAFSa06ZNldmnT5E1F54s/3PjEHl9hz3oKogK03YOEtnl/PtJfZ+c+g7gPaMco0U+eZLIf50m8qkZIvvf7lE/q21qnyqjyqpj1LGqDlVXkQGdTo1NjfGDC092x6zGbpsTAAAAAACAUijqTrvJ81vkxhuW5+6cq58ry67ZLB27/HBuV4dsvmaZzK3396s78264UVrmT47UUy7lCO0UdVfc67eO877jLu0uuqSXOsY5VtWh6rK1AWBgI7QDUMmmn+bdfXf3FSe64dZvbjreGn5VEzUGNRY1JjU2NUbb2AEAAAAAAEqt+O+0qyLlCu3UYyzd77jrPF5k/1yRPzznp3EZXqqsc4w6VtXBIzGB2kRoB6AaTHOcc+Yp8v5z62THX4yTb35wmPyh/c3WUKwSqb5+69phcovTdzUGNRY1JttYAQAAAAAAyoXQrgRmTztZPr50lPzp5hNEPj1b5JENIj//ivfYS3U3naJ+VtvUPqeMKquOUcfa6gTKa560dvVI19p5ln19YFm79PS0S6Ntn6Zxe4/0bG+07itEX9VTDoR2AKrV6adNkeveOUEeWj1CXth2nPyx/c3y55vfXPx34fUB1bbqg+qL6tPDTt/WO31UfbWNAQAAAAAAoD8R2pXQ9FMnyurzxsqB5hHy5HWD5D/ajpPXdrzZpX5W29S+q50yqqytjmK5IUVXq8xL2tfPAYbbhx5DQn+RplHazXlUer2+tRjaWeayHz4nhHYABoKZ9VOkcd5bZPO7T5JPN4+WL68aIf943VD55eZB8rvtvf/uuSSqbtWGaku1qdpWfVB9UX2y9RUAAAAAAKBSENoNVOe0SldPj7Qvs23PH5aUjN+veBiiQqLC+jVvbVd1Bn0ZA6tsvKApts69VmOhnfXz4swtoR0A9Jp67OQZ9VNk7hmnyMK3TpbFZ02Sy86pk03vOknuuGyM3H/lSPnamuHy1IYhbuD2/E3Hy4sfO05e3+EFcW84f6rHWaptz2w93i2jyqpj1LGqDlWXqlPVrdpQbak2eeQlAAAAAACoJoR2A1g81CpxEJNX3wZMhHYKoV0W+epxz6V+COhsCO0AAAAAAAAAoDYR2g1oRqATC0q8YEZ/HGA0/PH2m4FQLCwL6nX/dOpJCNIKDdnc8lrfcgFSvN+ReoO7+QJhGGMLorw5imwz7kbM1494sJUcpLnhkVZXYethky+0C/rYGKnbK+8da28rN7bo+C1BW+J850THHZwrZl3R/qh6bGGbuR7xsWerR+fVaRlbPyC0AwAAAAAAAIDaRGg3wLlhhBtomQGTH2zoQYYfvpihlBmK5Or0twVhXUookhxwJXH6Z+mb3pdYP8JyXdJ6TrDNazfoW2LftW3RMun9sPbBGkhp0gKr1PWw8Y6LB1cBf/zanLh9Vm3Ftul9Co6Ltu+Fb1q5PPMdHqPPkT+uaHveOPS2wn5qdcXm21iPrPXExeepvxDaAQAAAAAAAEBtIrQb8PxQZ3t7SjCVE93uBRnZQrt8YYe9rugdWGl1eMfHwhhjDKq+WMilh2RuyJMLi9zyztzEtpl1hMx+qPmN9jv9eIcltMu2Hjbe+ubm0JOb5/i82YKt8DwxjosHXdFy2ebbsq7GHCSNU9Wf60N8rs0y2epJ5h7vzmG+87l0CO0AAAAAAAAAoDYR2tWAIIjQA7PEYCkSatmDtlgwYgmh4mzhkcYa7sQDKf34eEDjB03GMZ6gf3ropMqrNvVx2oKh9H5E59IeLEVY5ivbetjo47GxzbvtGHNb0nrp272f9XnJ8fusxmoLHY05SBp/JGxz58Jsx+eXyVRPBsFnxlZXqRHaAQAGpM4jcuzYEdlh2xdwyxyVQ6st+waa1Yfk6LFjcqTTsq+P7ThyTI49dkhWWvb1v5Vy6LFjcvTASsu+HHcMR3ZY92WXra18iulLn/Tf/Axl+UwBAAAAqDqEdrXAEohlC4n0MCunuNAuT3Bi9DEeNMZDpKTQLjnA8oT9UG36x7t1qW1GyJSlH5Fj1M/5wiHLfGVbD5v+D+1S59uYz8j2okK79PMsUz1ZWdapHAjtAADVxg0kjiXxQzhCuyhCOx+hXWaEdgAAAEBNILSrBUYgpsQDL9t2e3DjBiD6sVnDDUs/7Pts7ca32caQKZzxg6RG5/iwPtW+uS1jP7xtXt9V+6khlmKZr2zrYVPm0M5Yw7zz7Y41vubuuIzQLj5Orw+5+vONNWs9GaWdryVEaAcAqGYrDxy1B0QVHTD0TZiDYhDaZUZoBwAAANQEQrtaYA0fvAAkEmS45aKhiBmueCGMEYxkDe0cXn2W4CVPGBQcFwmRbO36/YvU79TdbgmtomFSsC16bKZ++Nu71jrtZJmHXqxHXL4gq3ehXXQ+/G2xtTfqisy35Rh/XJG187fp/QzmWp8Tdz2MOZ63tj03lxnrMUXq8JkBoFdPrm3zvT0wLByhHQCgmhHaoTCEdpkR2gEAAAA1gdCuFrhBhu2OoVxQ5bGVyYU3QfDhhhVFhnYes12PLVjK7Wu0hE9a3yxBUk68b7aAxRYIZeuHwxIWpfHaMtvLsh4m+1zm6vXmyDa3WUK7YLxhvbZQKu98G+eQqsN2zoRhnkf12Z0nI2zLzZ3PDOMy1qMLgz2dUZ7QDgCA/PKGdv5jIYPHZ0YeD2mGEEbZfI94dNvWyod1+/VEwprg8ZSHjTaMcm7YEu6LProzCGKi7RohStIY3O3mo0C9UClXl/n4zFzoFOlXnnmJBUbuPGvH5wmTSjYHrtyY0uqIjcGRuN4Bo92jB3ZkDwjD45x+GOdllr6Y+8NjInMffxRstO08nw/tva1PfRVSAgAAACgvQjugLyQGo0BhCO0AANXMDS8SQ7tjkX1e0GEPIaZO3SFHIqHFSjl0JDmcirUbhHLB8ZG6zTDDHm7EghC3jlzQEgQsZj25Y1LGEAvtvLKR9vwxxOqP1OkdlxbMRMZhazcW9uT0fg5UGW2NY/tzY9LH4NWbO87sR971Nt874n2Nc8tY6k3ri9nXcExaPUHbsTHoa+G0dUTvmzHX0XPYeG/uU2JrDQAAAKAaENoBfSB29yFQJEI7AEA1Sw/tzADBCLX04KGgwEHVEy8bDVe8IEUFNvE+5vaFx7vtGyGIUS4W8ChZx2DsS5q36HY/DNKCn3iZuMg82MKdJH0xBxZZxmSeG9G1zL/e0fIByzrrktbLGE+k7qRjjO3WecrXn7TPR+y9V5ceUrrzHJsDAAAAAJWO0A7oNdvjJoHiENoBAKpZYoBkDXLSQwk36DDuTrJyAxK/rEk/NixnhiyW8MTti1GXLxJYmX3LOgZLqGMNb9xy0WDGLFdQaOfXoY8jUR/NQVhOr8MI7eJ9iW6PtJN3vb1j9QDLVmeM6neGczfSl6RjjD5Y58m23TK2bKGdGdIlzQEAAACASkdoB/RC8P1qWb/LDsiH0A4AUM36MrTzeOFDLpDR9/kiwVYar73MoV1KEKZYg5isY+i30C4QzEURIZYm7xwEIZRWJtpf+5jM7ZF28q63d2y1hXbuz5Fzs5A77Rz6vKif86wdAAAAgMpEaAcAFYTQDgBQzfo+tMuwz6wngQpFVGAT76MlzHEDEDPci7IGMVnHYNSfNG9ZAq7EOfclBUZK6rF9MAe2+rOMyWw72k6+9fbqjI/ZOy41tLOM1+2vtqaRviTNUWr/A/o4bGMytpnnluVcU+2o8qrPieMEAAAAUNEI7QCgghDaAQCqWWIIZAkYUkOJ1YfkiB46WI/PcUMRY//KA0fC0CQavMTDm3io4gc/xlh2HMm1YQ1iso4hFvZ4fYrU55bRg5w+CO2cPujBUPqxfTAH5rr5Y8rV6bdhGafertmO+16v16Gvt9euXmdwTEpoZxtv0F+trfx98euJlbGcc+Fx3jHx/QmfD9v7YNuRQ05d0SAxev4DAAAAqGSEdgD63Ulnni+D13xB3rTtn6qK6rPqu21MxSK0AwBUs74M7aLf7ZU/cAhCjpAWVKn3eoAT26a1lwtOcoFSIBaqpAVWaWNw95l3aPnBXcjcHw92lEJDu1z9jpTjPL2cg6CM1t6OSH+DMe2ItmP0y9ZOpF7F2o/c/iOd9vmLMsar+mEbT56+mG0Ex0TLGee0cb4c6Uz5fNjeuyzhr4PQDgAAAKgehHYA+l01BnYB1XfbmIpFaAcAAFBBrOFYpTKCPgAAAABVh9AOQL+zhWHVxDamYhHaAQAAVA7bnXUVq6oCRgAAAAA2hHYA+p0tCKsmtjEVi9AOAACgP6hHY0YDL++xkuZjSitVlsd/AgAAAKh0hHYD3bJ26enpyTl8UPbtaJXFs4IyjdKutm9vjB5XqLc3SdttB702blsjc2xlSmaetHY57Xa1yjx9+5R50vSRXbJvvzb23Zukae4p2rEJZjjz0t0jXWsXOO/9+oM5VA52u3W1XDArepw53772ZdNk+Q71c5e0nqOV981audct13nNGtl7uNspPyNWZiCzBWHVxDamYhHaAQAA9A/zu+mqJbDzwsUquiMQAAAAQCJCu4HOD5H2frhJmpqbZNVH9kr34R7p6d4iiyepMgWGdrMaZdPufXJwq15+lqza49RxeJ+0rW6SliuX9n9oN6NR2u5UIVmPdO9pl7atbdK23R/74W5pSw3FpsnSrd1afX79d7bLKmcOm1ZvcOraJftUXU79XrDnH2vMd2DRW+tk2vs7/fLzcuVdwfx1yvJpdTJvbZf07G+XRufnaLmByxaEVRPbmIpFaAcAAAAAAAAAtYnQbqDzQ6T2Zbltc1Z7d3V52woM7c5pla5Y+YQ73crGbH+aNG5Xd/11S/tlxp1ws5rcO+hSQ7E5q2SvM8bO90/ztyWMb8oF0nqbs91pZ8sSf5tlvkPTlkunCvr2roqGmmq7mtMdy2Waej9pqWzZ3yP71l8QPX4AswVhoWOviLz8ktxg21cSz8ijL4v85Jj/PkP7tjEVi9AOAAAAAAAAAGoTod1AZwuRzm2Vfc42744vI7SbdoGsUnekHVRhlONgl7RdNidSl659lR/iaYI7yU6Z2yRte/1HZjoO7m2Xlgtyj6Z07yjr6ZJNqzdJl2rPDcWC/rTIorWd3t1sh/dJ58oFUjdjqWwKHsF5cK9suDi4W84I1WZ5oVsYghlmrNjl1tF5RRDKRbn9Otwuje6diEpKKOmHmAc3L/bep4V2dcEjMvfKqvDxpHUy7QrvDrxcSFgnjdsT2hugbEFYqE9Cu9/KT+Q1efQR2z4ToR0AAAAAAAAAoPwI7QY6W4h0mb/tMvXeCO3OWSO79mySVUsWyKzzGmWLeyfZXlk1x9n31kXStLpdulV5p4z72Md5C2Rp8yppV4+i9B8fufTcaW49XSpwu3OXbFjRJE0rNsgudYfbYb8upy0vtHO2dW2Kf8eec2zX1lW543q6pfvObtm1vsXpQ5sX5u3bIBe4xxih2nva3HqTQrkgaOveaLuTzX9U5S164JcS2tVdIBvU2IPv8UsN7XKPyNy7MrgDcJosv8U53n80ZljODfKi4d5AZgvCQoR2AAAAAAAAAIAaQGg30Bkh0ilvbZQt+/SQKM/jMYOALwihMj4ec+kN6o64XEDnunCDe4dfEJYFoV004PL7EwZyuTvRDt6wNCzX1O6U6emSNW9X74328wRn6WNeIK13OPu25tpKD+3sbUe1S2NQPnhEZhAKBu/NvrjB4z5pPVfbNoDZgrBQJDTzw7djL8kLErxekbvD8mp/7vXCL5+RNz2il3VeQV2qXu3llnXrILQDAAAAAAAAAJQfod1AZwuRDu+TLQ3BoyWNAGvSLLlgxQZp371Puu/MPdqysNAuKeSKthU8HrP1nOQyLn8M+p1z0WPtwVm+O+32rVtg2e+1Hzzi05MW2i12v38uDOH8tvd+uMm9E9GzSGaF5YNHZPqhqV8+FjD6fUwOHgcWWxAWioV2zit87wVs8txv3bJ3PxcN3+4+Fvwcv9Pu7ue0sM8N8IL3hHYAAAAAAAAAgPIjtBvozBDpvYtk1hS9TDQkW7y52ynvPYay8Z3zZNYK7y63Sgjt9AArNbTL+J129kCswDvtLt7kPi40DPmSQjhN8IjMzvfP8L67bv8WWRp+f56PO+1yYqGd8ZhLbb8K7YIAL8pyXOJ+QjsAAAAAAAAAQPkR2g10eUMkPSTz7xrTwqk5q/dGj8/4eEw3jEp4POa+9frjMUsQ2tXN8L4nrqdb2i8LvjvON6tJ2tV35HVvkcVmUOYq4DvtZi31HjXa3SZLg++jyxDa1U1yxqgeidne7v6pP/YzwHfaaQoI7dR7N7hTr0jQZjnOfGwmoR0AAAAAAAAAoB8VH9pNrZeZM2eWXP2plrYLRGiXNbTzw6nDXbKluVEaV2yRvSpc0o8PAqfuTlnTvEaWX6y2W0Ktc1ulS5W7c5dsWNEkTSs2yC43LGuXxhlemdKFdo4ZTj2qPee4fbvbpW1rm7Td0iUHVZ+c8aXdwXbB+n1OGaefYajn139nu6xSdyuuaJVN2/dKt1vXXlmj1+X3Nfp4zCZZem70UZ1eqKkclC0N2vE+9zsB78x9r99AZwvCQgWGdoEbfvla8nFuYGd+Fx6hHQAAAAAAAACg/xQX2p3VLDfu3iN79pRB23KZY+tDAQjtsoZ2zvtzV0mnunvM2Xbwtk2ydEX8+AUrO2WfG1gFgZP9TrQZF6+S9tv878Vzyu7bvUGWaneOlTS0U6bMk6ate6X7oLMv6MMOpw9v18rYXODdEdj5/iBo8+tXdQT275NdH2mRC8w74fy+mqLfkaeVsz0ac9JS947H4I7EWmALwkKZQ7tn5NHntHAt7TgziFPvCe0AAAAAAAAAAP2ouNBuyUYvUOvYLOta15XIRtm2UwV3G2WxrQ8FqOnQDkWYJo3bD8ZDwDJxH0l6uFOW+3ck1gJbEBZKC9+M/eGjMd2Xfiedf+ederllvWAufD33CnfaAQAAAAAAAAD6Ve9Cu/WL7fv7xBxp2UZoh37iP16za+0C+/5SmbNK9h7ulvZlM+z7ByhbEFZNbGMqFqEdAAAAAAAAANQmQjsA/c4WhFUT25iKRWgHAAAAAAAAALWJ0A5Avxu85gvWMKwaqL7bxlQsQjsAAAAAAAAAqE2EdgD63Ulnnl+VwZ3qs+q7bUzFIrQDAAAAAAAAgNpEaAcAFYTQDgAAAAAAAABqE6EdAFQQQjsAAAAAAAAAqE2EdgBQQQjtAAAAAAAAAKA2EdoBQAUhtAMAAAAAAACA2lTBoV2dzL5knWzbTWgHoHYQ2gEAAAAAAABAber/0G7qXFm4tFmual0n6xxXr1gmC+fVy+Rgf3291Ovli0BoB6BaENoBAAAAAAAAQG3qv9Cu/nxp+XCHV4/NzZulZeFM+7EFIrQDUC0I7QAAAAAAAACgNvVPaHd2s2zu9MO53dvk+g80S8PShXL+eYulobFFNrbtCsO7G1fMz911VyRCOwDVgtAOAAAAAAAAAGpT+UO7+sWy0Q/sOlobZPYkSxnHzIuvlY7dfnDXNNtaJitCOwDVgtAOAAAAAAAAAGpTmUO7qbJ4vXcXXadzbNp31U2dOlkmv+Nq6VDt7L5eLq23l8uC0A5AtSC0AwAAAAAAAIDaVN7Qblaz3KiO23mtLEq4w06pd+rv3H2jNM+qk0XXeiFfxwfmW8tmQWgHoFoQ2gEAAAAAAABAbSpraDf10uu9u+xWagHcqZMjZdzAbk+nbLxkprdtwVXOe6ettuUyWytXCEI7ANWC0A4AAAAAAAAAalNZQ7u5V3a4x21c4m87/VK5fnenXH+p/511pzfIxl17pPOahbnjJjnbVFt7NsriYFuBCO0AVAtCOwAAAAAAAACoTb0L7Xbvks6bO/Nad8lU97iFa7xHXYahnaN+yTrp1IO7s1tk2+49sm3FXL/MYkI7ADWD0A4AAAAAAAAAalNxoV39Irn2YypIy2bbijnucbOXb3Pf39jkP/rSt/CaTtnjf4edu00FdzdvlIaZzs9vXS7bVD03XyXztWMKQWgHoFoQ2gEAAAAAAABAbSoutCvQ4ksavJ8vulZ2qQBua3P4/XRzl98oe3Zvk5b50e+2C8y+3NmvjinwUZw6QjsA1YLQDgAAAAAAAABqU3lCu9aNsniS+nm+XNWh7r7rlI1L6qXu1EWy7ubkwK6ufrFs7PTKX3uRZX9GhHYAqgWhHQAAAAAAAADUpr4N7YLvurO4scn7zrqpF6+TTrVt9za56h318ToCp86Xljbv2F0bG6TeViYjQjsA1YLQDgAAAAAAAABqU9lCuz07N0pDvVdu7grvu+2UbetbZPG8epns1zG5fo6c37hOtu32j/vYtbLIP65YhHYAqgWhHQAAAAAAAADUprI8HtNm9qUbpTMI5hJ0frRZ5p9qP74QhHYAqgWhHQAAAAAAAADUpn4L7VxT58riFRvlxpt35cK6XZ1y46arZNn8mfZjikBoB6BaENoBAAAAAAAAQG3q39CuTAjtAFQLQjsAAAAAAAAAqE2EdgBQQQjtAAAAAAAAAKA2EdoBQAUhtAMAAAAAAACA2kRoBwAVhNAOAAAAAAAAAGoToR0AVBBCOwAAAAAAAACoTYR2AOBbsHS83D/Jvq9cCO0AAAAAAAAAoDYR2gGAb/91Q+THi+z7yoXQDgAAAAAAAABqE6EdKlLLXUfl2LFjcuyxA9Kitn3ggBxV7x0PdPjlOh7wyhx7QNq1Y1F+0xs+Ige+7K/ZE0flK//tFrl8ur1s5RovP977JpHrxlv2lQ+hHQAAAAAAAADUJkK7Aaz9i17IFQZfmbTIgcf84xIdlQMfyHPsF9uNfe3ygH/80btajH0mvQ9+IGcJ7cLxJfYHZXGes7aPPy5f2rtazp1eJ9Pnr5Y9Dz4ujzvnwMW28obcOjpi5030fAzPHRXYRsr651fs+AKcP1peueNNIp8YLfts+xOEAXOgoM9bHKEdAAAAAAAAANQmQrsBrCpCuzCMi94tV/yddkE7BHmlNL35Fnngm4/78++s6Wc2yHS9zPQN0nM0wxqoNQzPT+/8Cdc39l4TCe28cvnD4HS3Xj1ERIV2dwyRpxbYy9ioc7W3besI7QC4Vh8K/97THek0ynUeiZU5dmSH7DhibAsdkR3h8SvlkPp72ykfqVNR9T52SFb671V9Rw+sjJdzrDwQ/Z8XksqVxnmy/vYe6enR3S7r3+Hse8d6uT2y3XH7ejnPdnx7U25bc0f0GE1Hs78/Vo/Dba9Dmtz3tn4F+zxN7eZ+v36tTFS8ztuvO0/b3yQd2r74foc/tth2h+qPu902bz7vuGxjy7VhKa/PX4b5tM2Vx2/XWkcfzUewzS8b0s+Zskk5BzLMY2R7UJdlHN58+5+jyD41p5bt5twoYb228yWow9uXeN5bzsWksrZzJP3z1McSPjexPqTMVXwM+rrln0fzc+gy1t/6WYqdNyltBeO0nDfnXXd7yvmkCcpk6Ftu/sw+2c7PErKsW+z3Q4bPnzdGW9+1z5btHPG582HUGZRPPt/934WReTfqtvXd566rVtYdt60OX/z3pj5e27nlc/vg7beNRc2dXre1X1p5AACAakZo10snn3yyjBs3TsaOHesaP368TJw4Mdyn3gf71Z8TJkwIj1U/B8eZVNlAUF+higvtonJ3EWV5BGXhoV3m+m2hnU0Y5BHalczFwZ11LTLLeT99/sWy8G3xcuH59837ZGvD9Nh+xQy8Iu+dtUwMw7TQTrVTUGg25WR5cONQeeUTg6O6VGDn22vs+8RQ+UXjydJoqU+1n3pOFojQDoDLDe30gC3Y5vxe1UM2I1yL84K5WNinqGOPHJEjZjvBvgyhnRsORkI/p70DlhCwZJIv8MUubNqoC4rtHdKRUM56ETrTxdl4v9yLtdpx5gXIVP4F0mh5p412v76k/eriqN5Xt++3W+fF2h/rWAsdm1neex/uzzSfgXjbLrOOPp4P9zww+th0naXPpZTvHChoHh2qfMK5747dmZd4ABMP7dy1j9XhlAv7krBm+fap/jnjje4zwofEbQ7n+OhclZhtnv01i/QtaZ0c0c9NEEoEdeabR+c8dvbHxmz0y2wj2GYLVqxtqfrcz0w8eIr/vrSvTZNz3rn9ydA3j1dPpD/Oseutc1Ei5rr5axv2KWldbWPM+NlSrH8HGXV6bav1t59X3nmkrYN5fAr33Ii075wb1xn9STynvfOyo93pW+K6mmNOPvf08yNTvwAAAKoYoV0vqDBt9JgxMmLsSTJu2hkyZnK9jBg9VkaPHu0aNmyYjBgzXkad9BYZM2maDD9xrAwdOlROPPFEUWHe8JEjZdSESTL21NNl3NSZninenydOPEVGjjtZhgwbLmOcNooJ7pJDu1yAFkp4rGDpQjutrM7va6zvltDO7Ft4TMQDciAsFw3ywuN7EWrWIjVvj5t31vliAdb0c2XtnV+Rxx+/Tz5i+467lDvt3Lruyq175Bz0Qzt3zRPO3XQTZf/Vw3IhXZquYfLUhcmfv+h5l+Vzko7QDoDLFtq5dsgR5++zQ6v9970I7VTgprZbA7lMoV1KIFg2eS4u57kwqS78qWP1i4E66wXTTBdnLf2yXby1Xsg0WS5YR3ht2esy+uH3fX3sgmdCf6xjLXRs8fKRec00nwFL20qkjr6fj+xrVSr5zgFHQfPojUnVZxubt229pU3jIntSmxEJa5a6L2280T70/9r4Eua5kDmLj0XNT3Bshnl01iwWpmX8vRP9XZfSll/felXeGIetjtS1ydi35LktI8u6Rfqb8fPnHZPhs+Wz/h1kzofbtj1IDepVwVlYT+b5TDvnNGljV9sT27ONObnN3Hxn7BcAAEAVI7TrBRWkjRw9VqYtapaGT/6tnLvhVhl/+llywgknyKiJU+TMy9bJoo57Ze4HO+WibXfLu3bcJ7OXXy/Dx06QwYMHy+BhI2XKRe+T8z/6V7J41xfl4h2fk/M+/F/k3Ov2yNmrP+Ycf50MGzdRRowY0XehXXgnmoUlvBoIoV27dmzujqxc+wXdpQV3npPuLLPvU3P9uNz3UXO7Tzsnc8f666Odk+56B+dVeEzvQrKNi0+U3+l32Jk6T5TPnGE/1sbto+VzVAhCOwCuxNDOCNCKDu1U+OfXb6uj6Dvtyi3/xeXkC5PqgqG/P+GiY0WEdkntBfKM0x6QqbFH+2ftj7XtQsdmljcu1Gaaz0DCeut1lGA+3GNsfSyXpDnSFTSP6ed+OHa1L3KsvnYpn72ItHIZ1tMi7F+etS6rlL5EPg8pY4t+bpSs853bFztXjX7F27CVS2krLOeV0euKfLayrE3Wvlk+n2WX9jlJ2O9KGmPqZysnMqcBc279tptsZdU+Z1vBa+NT/Y3VaUoYu2rTm5+k88k25uRzT5/vTP0CAACoYoR2vaAefzlq7Eky+4qPyspv/EEa9j0qbzlnsZx46hky//p98v4v/ousevRP8q7d/12a7/uZrH7sz3LFg7+Si27+vAyfcIoMG18n5994SN5374/lL7/0tDR//hfScMc35JLbvyHv6f6OXHrX4zLu9LNl+IgRblu2PqSJh3ZaUKYHC9bQxFO60M7bnlR/MaGde2w4luhddcn18RjNQql5z3ynnSs5tHPXRTtXcu+9cylSl7tm/lqrdXbK9UVItuCMcfKvey2B3UfHycZJ9mOSqX737pwitAPgSgntVqrvkAuCMhWuuX+f5UQDuoTQTh0Xhm3G3XvB/gyhXVB/vN1yyXdxucd7LJgvckHYv5jpvS/ggmnCBcrohVCzX/EL3O5Fx0j/7BdRrX3QJfUnoO83f9ba1C+IWo8NZRtb7r23Xx9rbB3yzmfAbNuXNEabpLLq55T5CNYrNkdlkPccUNz+R+c5x5hHVTbl3NfH7o7bWtb+mYmLr39ufezrmW+84X59/fpbShASGY9lnYLxm+ece5wxV5FjrfPo/RzWY/TLbCNHX8+UtvT63J9z50BsnPnWxtK3SJv6fLpljW3lZI7HXUetL0njTZn/5M9WjvWzYNSZa9usI3deROoJ5zLHfk4ouXMh9ns3YB27Oi7h3AjZxpzrc7Ssee5m6BcAAEAVI7TrBRWkjRx7kpyxfLOs+Mar0nDXU3Lqoitk9sqbpflLz8vyh38n57V9Rk566wVy8lnvlAVbDsiKr/9JrvjqH2T+lkNywrCRMnHuu2TyBcvk9Peulbe37pW3r71V6pdeI6c4205Z+D4ZcuJ4GTnSKdcnd9rZg7Pk7QMntDO3h8fG+om8wu+0Wy3nGo+8jIV208+V1Xu/lPB4THVOGOukBXOxuiyhndruniu9Ce6mjpN/td1tt2WcLLeVT2UZU4EI7QC4CgntCr7TLr4tFsplDu0CKvhTf8/a+1w6uQt3oeDioXlhMyJ+YdB2Mdt6oTHTxVmzX/GLsbb2bOwXOzVJ/Qno+42y5gXkWH8SL8YWMjb7XIdjyjSfgXhdrpQxxqSUzTsf4djjYy6lvOeAknke7euhjzX6Xr+wnvSzT/UhPC+inwX7hXX7vnzjDfdbxuyeW0Ef8s1ZX0r5fRMZT9I6OSJ9VyLlCphHvS9Gv+zntaKvZ0pbRn362LKOM5S5b5rgHCvn2iqRc9vSftJ4U8eY5/PksH4WjDr1tiP1a9sj9ZjHZ6L6p8ZuOc42dnObtU3bmJPPPfv5kdIvAACAKkZo1wtBaHf65Vuk+euvy7v3f19mrd4pF3X9vTR/7XWZf9PnZPRpb3O/l27I0GEydMwEWdD+BWffa9Jwz/9y9s2RQUOGOftHyISz3y0X3vaYLDn8zzLlktUyyCk/bOQoGTFipKjvv+uT0E4LvkoT2lnaDFhCN6VsoZ0WKD7Qof+sl0FW05tvkfu+4s2/msOLO+6TBz5xudyigrbOy2XPX98n7Rf76/jN+2Rrw3RrPWp/LMQN1txdy9zaunUFIasW2sX2FWjB0pG5oO62QSJBgNc1Uu7Pe6ed89nR2o30v0iEdgBcpXw8plu39/dglNZewaGdZ6UKFFP709eyX1yO79MuwIai5a0XTNMuzobbo/1y6zGOyXSBWklqL5DnAmzqhXT3WO+iqbU/1rYLHZttjdSFVr/PmeYzkLDeeh2lnI+AOi6ljT6XNEe6tHnU++q+Tz/3zbHn1li/yJ71s5dSLst6WoT9S1nryDqXQ0pfIvOZMrbUc67AeVR1ueM3+pXYRtY1i43TC01U2cicp8xHKGvfYrz+ZSvbRyLrlhuzfb9GjVHbbo7R/tnKsZ7H5tzqbWv79LYKXpsEuf5q2y1jd8+/yO8XT3TNbGNOPvdUndZz0mHtFwAAQBUjtOuFILQ7rXmLvPeR1+XCT/1PefsN98qS+38tf/Hg7+WUxatlyNDhMnbsWDnppJNk6NChMvr0eW65uW2fl0kXf8D9bjt1J934s94lF935A3nPl1+WaY0fkiFDhsi4cePcNooJ7JRY8KXfCacHC2HQFQ+xCg3tcuWjdYV9MepJqj/W916Hdlr5x476dWUbEzJQd99953F5/PFjDufPL7bLxbZyMdo56a5NNPDSz6dIKGeEdmE9RQRm9286zg3pXmkbI7dOqZMlC8bIs7eq4O44+cVS+zE5ucDb1v9iENoBcCWFdub2IkK7lfqdeknligzt0sLG0ijk4nKO9UKopa5MF0wDkQuXZl3xi8zZL1DbL+bmpMyBuc9ycTW42Lne1h/rhehCx2bpnz6HmeYzkDDW1LnXGfsKnY9QvjXpaxnas86Xw5jfLOd+/Nz09t9+3fpIP+x1OSJtFrAeobTx6vuS607sW6kkncfm9qR1cqT/Tih0HtU8OducNdPbT2oj72c2YBunGpOzbX1kztP66zPqSh9/VNnX11w3f8zhPCStv3Fc1s9WwDrOPOeUasNc90g9SX3NImn9I+d0wuc3Yzn7eZDnfOrNmAAAACoQoV0vBKHd1Mu2yJIvvy7n3f6UzNn6BTn/Uz+Us9u/LGPftkhGaN9Hd+KJJ8qgE8fLmRsPyPy935bJDa1haKfKnvvJ78pF9/xKJl+y1g34VNBntlmIeGjn0AK6GEvgkBSqJTNCDIN5J1+sP34fig7ttHJ59xV5ZxYSuMHdsQICuwowabz8eO8gefYvJ8gSffuUCfKttkEiG8bLAn17GRDaAXDZwi8VpDl/f0Xumis4tLPceedbmfLYTXto59R1JNq2W0fF32mXfIx5gdR+Ydg7Prrdv0Ae1mlpw+1P7gJlwReoI/UrThvt/gVQt27LfrOfsYumWrnYXRCOlPLZxxYvr/bn+mXpZ2w+A5a2FbOffTwfTe2Wi9RlvkCc9xywjsUR+RwkzJ9DP9et56Y/p9FHg/pzZbabsc3Ufe4cmxf0vfMi0je/X2Z/7Z/dEoqM2eeOwRhf0jo50n8nFDGPfvtpd1Ha1zClLds4He5nWrVlfr4saxN+noy6EsfvlOuw9Dl5rkrAsm7umMPx+vMYOefiv8esY/TPYdtjd63nsbkGZt8s8x6pJ2EN45wxBb9ffG495vlra98s4zJDOvO9z+1/dHu03Yz9AgAAqGKEdr2gwrgRY8bLWxquk/MO/7vMuuEBqb/6v8jZt35P5nR+S8actSQW2g0eUycLDvyLnN/ztNS9e00Y2g0/9W0yY/0hmf9XP5G6JdeWLrRTYsGWJUzzFR7aeXJ31uWYd/FZy/Y2tItsj+/LtdW77x3DwLDgwrHy7QuT7mSdKPtXjpX9eR+R2bcI7QC4bI+wtIVhfpCXXM5yB13SnXBum0fl0GrnZ0toZ7ajQrzY9rIGdkq+i8v+heRQhzS5FwQTLli6x+QuFlovmLr8C7Ra3dE+2Pvl1ue3HV7k1qRehLaMJ1q/d4FY3x+rL+liql93tvLZxparKz5XSXXqZaxrmtC2vZ99Nx/e2PS6slzwLoG0cyB1LH5/VZkM535SeOLNQ/wiu+1czq2RZf3D/Wn7HGnjjYivddnXyNJX63q4a2AvlzTvnvzzaJsbb21yc5G+VoGUtvTzKcJfg9jvy5TPoVGXrW9e2Qyf5VJL+R2T60t83sy5TVrjpM+Wu73Q0M7thyX0ioR20X4mfV5ia5J0TofbvTlIWh+3vnA8av7iY3aZnxOj3Uz9AgAAqGKEdr2gwrjhJ46VsQua5YyPfU1mbv1bmfS+Npn+oXtl9s5vy/gLrpQhw0e6j7lUAdzgwUNk9FkNcu59f5T5n/1POfnd17qPwRw1apSMOvMit47ZH/+ujD23qU9CO8QlBplAhSC0AwAAAAAAAIDaRGjXC15oN07GLrxKztjzAzm94+9kwtLr5dS1h2TOod9I/davyvAZF8jg4SNl0JBhMnjiDKlv+x/y9ntfkVm3/1yGTJgmw4cPd+/AG3XWUpnV9XN524HnZdw7ryG0KwXtbr2kOwuB/kZoBwAAAAAAAAC1idCuF9zQbvR4Gfvu9XLm4RfltM4nZORZfyFj3rlGpu/9Z5n56WfllI8+JMPOvFiGnn6BTG3/tsz67J/ljO7/kPHvuUFOOOEEGTNmjIwePdo97vSu/yOzPvMnGbt4I6FdX0r43jxrWaCfEdoBAAAAAAAAQG0itOuF4PGYoxZeLad1/04mb/+OG9AdP2KcnLhorUza/BU55eYnZcx7bpIJ19wt0+54WqZ8/EcyvmmnHD90hPt9dxMmTHBDu+Fv+wuZ8sn/I9N73pDRSzYR2vUlPbQjsEOFI7QDAAAAAAAAgNpEaNcLEydOlOGjxsiQGe+UsS1/JSc23CCDTp4ugwYNkkEjRsvQ6e+QEe9YLUOcP09c2iZjLtspw2ZfIsc7+9VjMVUop+pQd9sNPuUsGXtFl5y05l6nTIMMGzbMDfRs7QIYuAjtAAAAAAAAAKA2Edr1QhC4DRkyRAYPHuxSd8ipO+fUdnUnnb5PUWGc2q8HcuPHj3ePU/tV4Kf+VN9zp+7k09sDMPAR2gEAAAAAAABAbSK06yUV3KnQbdy4cS5195wK29R29ad6H+xT5VRYp/aZdZjlCOyA2kRoBwAAAAAAAAC1idAOACoIoR0AAAAAAAAA1CZCOwCoIIR2AAAAAAAAAFCbCO0AoIIQ2gEAAAAAAABAbSK0A4AKQmgHAAAAAAAAALWp/0K7098jtz78Q/npT3+a11MPtstiWx0ZEdoBqBaEdgAAAAAAAABQm/ontCsgsAv0JrgjtKsQy9qlp6ddGm37kM6duy5pPceyr4Qat/dIz/ZG677+NU9au3qka+08y77qRmgHAAAAAAAAALWpf0K71ffIUyqM+8d75Crb/oir5J5/VMHdQ7LTuj+/Wg3t5q3tkp6enrj+CmHKHNoVHDid0ypdtvkK9Gd4RWhnILQDAAAAAAAAAAwshHYDmBvadbXKvMh2L+zojwCo4kO7iEZp7+mR9mW2fQNAxrUgtCs/QjsAAAAAAAAAqE2EdgOYPbTzuGFMwr6SIbSrHIR2FYvQDgAAAAAAAABqU/Gh3bvXy85P3Cq35nHjVbPjxxLalUVaaOc9CtK8284LqsLHQWrH2sObeHDilgvrMOq3BUXuNu2YhDsDVRvRx30WGTjlbS9QQGgXzmVwF6PPaDvoTzBH+rzFHmVq7Xd0zOYx8b4a/fHLRNdISZ7LcA4j8xa/S9PsSyxMMx89asx7tE+Wu0CN47vWNmYM7YxzOlZ37vyK9CHxvCg9QjsAAAAAAAAAqE3FhXbv3ikP/VAFaVl8V+5Zc3r0eEK7skgN7WKhVDykckOM4PjEwC23LQx4Ivu1kMQo7wU90RDFC070dnLBkx7QxMvFmf3J1l6g0NBO1aPX7YdFWvteW/E6E8esr51t7vT9fh/M9TTXI9xv1Jck6HP6PDpt6e0k9CX33hnf9lzfzXWKnTex+nL9Sg3t/OMiZdy6jb7455fZ3/yBYGkQ2gHlpT5zpfambf+EDGxzBwAAAAAAUEuKCO1ulL9Rgd0Pvytf+/JD8lAejz2lyn5Nbm3U6iC0K4v00M4LK4Kgwi2rByeKG3oE4YkZvBhhi1vWDIG8NsLwIxIUxevzWAIeFaqYfUs8PicaBmVtL992C0uo5DKCMbc/5npE5jhle2zu4sfo401fe4fRtyTWPpvrGmPsTxpjuC/9vImuo72Mjf04c7v9/Mo7fyWkfl/ZggUAAAAAAAAAwMBWRGi3Ux7KHLjVyc6HVeD2lNyzWttOaFcW6cFDNJRygwznfVwubIkGe0Zw5N/BZGMN7axhjUf1JRfGJIUzBYY2mdsLFBraWUIpY3s0LPKpObGukTe+sP3Y3EXnOOTXbx+TppDQzuyzdbs3X3pf9Pbd8lr/QnnPG2MeQvnWP+k4R2TO7fUQ2gEAAAAAAAAAyo3QbgBLDR6MECtvyKPox5hhk/neRg+KjPZ10b4khTP5QhsjWMrcXqDSQzv7WAJ511OvL4W1z8Z29zyLzFX6mrmhXFBn3vPGmAdje/IYk45zRNq010NoBwAAAAAAAAAoN0K7ASw5eIgHFdlCilwQEguFkoIrXSQoSgrFzO0J4UyG9qKBU9b28m23SOiLOafWACxpHOb2THOXk3c9exXa6e3b1idhzQJ623nX0asrqQ+JbTjsfTe32/tKaAcAAAAAAAAAKLf+Ce1O/6Ac+ge1/afyw+//MC+33MM7ZbFWbyEI7bTtbkiSFB6Z4UWjtJvlVOCyvV3aY4GPH64Y7TU6ZcNyRlDk9s8IbNxAJVKHX28kpLK3ZTJDm2ztBQoN7VQftbFa5jM1RIrMpyWoMuYufowaX7s2Nq//Zh3hePKGZR6vHcs4zL7E5lk7xmmrXT+vImPJet5E18LWrxjbOe3WpY/ba9+sJ/rZMdfDfJ8/QCwEoR0AAAAAAAAA1Kb+Ce0ULbjL54cP3yrvOd04vgA1Hdr1eOFGTkpQE4ZPaWUtYVDIDzO0OuKBiRk0GX2M1RuEKo3RuvMEdooZJin52wsUGto5c7UsOn9miGPrT2RfyrG2uTOPidftr1Uo6fjodl3Q52hbZvloO8FahWOInVfm8XnOG8UP7gLty4Lzwihnyti2WQ+hHQAAAAAAAACg3PovtCujWg3tBoaM4Ux/CkK7PHet9YoKrTIElah+hHYAAAAAAAAAUJsI7VDhCO2U6J1fGMgI7QAAAAAAAACgNlVMaDf6wqtl6JX75fjrH5M33fQjl/pZbVP7bMdkRWhXzQjtCnpUJ6oeoR0AAAAAAAAA1KZ+D+1GX7jaC+q2/VMqVUaVtdWRD6FdNavh0E77PraKHj/6FKEdAAAAAAAAANSm4kO7PrDynn+2BnRphl+229KndIR2AKoFoR0AAAAAAAAA1KZehXY//P4P8/snP6Qztl/Z82NrKJdFocEdoR2AakFoBwAAAAAAAAC1qV8ej6kec2kL4wpRyKMyCe2AynbSmefL4DVfsH7WK5nqs+q7bUzFIrQDAAAAAAAAgNrUL6Fdlu+wy0fVobeThtAOqGzVGNgFVN9tYyoWoR0AAAAAAAAA1Kayh3ajL7zaeuE7MPfeZ+XuX74iL7z+itxt2a9TdZnt2RDaAZXN9vmuJrYxFYvQDgAAAAAAAABqU9lDu6FX7rde9A7c/es35JnnX5WXJX9op+oy27MhtAMqm+3zXU1sYyoWoR0AAAAAAAAA1Kayh3aZHo35yEvyQobQLusjMgnt6qRxe4/09LRLo2Vfn1nW7rTRI+3L4vvK0j6qlu3zXU1sYyoWoR0AAAAAAAAA1Kayh3ZvuulH1oveERlDO1WX2Z4NoR2hHSqb9fNdRWxjKhahHQAAAAAAAADUJkK7GkFoh0pm/XwHjr0i8vJLcoNtX0k8I4++LPKTY/77DO3bxlQsQjsAAAAAAAAAqE08HrNGREOzRmnvcd5vb9TKGNuCAG7FImndsc/9uedgl2xqmKEdYyggtJu1bJPsuuOgV69j345WWTTDL19M26hqts93qE9Cu9/KT+Q1efQR2z4ToR0AAAAAAAAAoPzKHtoNvXK/9aJ3RMbQTtVltmdDaFd8aHewe6+0rW6SphUbZFe3s/9wpyyfFhxjKCC0a9zaJe1rm2TR3HmyaHWndKu2bljqlS+mbVQ12+c7RGgHAAAAAAAAAKgBRYR2i6X9wafkpyq4K8Keh39ivegdkTG0G33h1Zb+xRHaFR/a7Vt/QVhm3touZ9tB2bIkOMbgH5MsF9pFLZDWO5z9Xa0yT70vpm1UNdvnOxQJzfzw7Zj6HRG89N8Van/u9cIvn/F/n2ivoC5Vr/Zyy7p1ENoBAAAAAAAAAMqviNBO6V1w95Zd9gvfhcj6aEyF0K740C5y15xtmy4I23a3SdvWqF37oqHdKXMbpfUjnbL3zm7pPqj2OYzQrqC2UdVsn/FQLLRzXuF7L2CT537rlr37uWj4dvex4Of4nXZ3P6eFfW6AF7wntAMAAAAAAAAAlF+RoV3vjL5wtfXCdyFUHba6bQjt6qSpXQ/NShva2fZHQsM5q2TvYef9HW2yqnmxLJi1WDZY7rQjtKsdts94KBbaGY+51Par0C4I8KIsxyXuJ7QDAAAAAAAAAJRfv4R2yvDLdrnFr9gAAALzSURBVFsvfmehjrXVmaTmQ7tJS2XLfi0UCwK6W5bLtKDMxZvc75UrR2g3a+XeaDmzf4R2Ncf2OQ8VENqp925wp16RoM1ynPnYTEI7AAAAAAAAAEA/6rfQTikmuCs0sFNqNbSbc8UWad/aJp1dKjDrkc4rZvj7ZknLx9W2btm1vkWaVmyQXV3dctApU5Y77fxy3TvWSON7G2XNjm7pUXfeEdrVLNtnPVRgaBe44ZevJR8X+95M7rQDAAAAAAAAAPSvfg3tFPWYS/X9dLYL4TpVppBHYupqNrS7pssNunoO7pPO1RfIKfr+ty+X9n0Hvf37OqX14pbyPR6zboYs/UiXHFRB3WGnbyubpFUFi4R2Ncv2mQ9lDu2ekUef08K1tOPMIE69J7QDAAAAAAAAAPSjfg/tAqMvvFqGXrnfC/Bu+pFL/ay2qX22Y7Kq1dAOqBa2ICyUFr4Z+8NHY7ov/U46/8479XLLesFc+HruFe60AwAAAAAAAAD0q4oJ7UqJ0A6obLYgrJrYxlQsQjsAAAAAAAAAqE2EdgD6nS0Iqya2MRWL0A4AAAAAAAAAahOhHYB+N3jNF6xhWDVQfbeNqViEdgAAAAAAAABQmwjtAPS7k848vyqDO9Vn1XfbmIpFaAcAAAAAAAAAtYnQDgAqCKEdAAAAAAAAANQmQjsAqCCEdgAAAAAAAABQmwjtAKCCENoBAAAAAAAAQG0itAOACkJoBwAAAAAAAAC1idAOACoIoR0AAAAAAAAA1CZCOwCoIIR2AAAAAAAAAFCbCO0AoIIQ2gEAAAAAAABAbSK0A4AKQmgHAAAAAAAAALWJ0A4AKgihHQAAAAAAAADUJkI7AKgghHYAAAAAAAAAUJsI7QCgghDaAUBp7NixQ44dO+ZSP9vK9If6+nq54YYb5Otf/7o88cQTbv++/e1vS2trq7U8UE6LFi2Se+65xz0n1bn55JNPyn333Wcti9rxvve9T/7hH/7BPSeOHDliLQMAAACgGFPl/wPz7lTVWTQ1RAAAAABJRU5ErkJggg==;" vertex="1" parent="1">
          <mxGeometry x="10" y="120" width="1773" height="409" as="geometry" />
        </mxCell>
        <mxCell id="F7NxVQR-bwVQOGqpfLus-2" value="" style="rounded=0;whiteSpace=wrap;html=1;fillColor=none;strokeColor=#FF3333;strokeWidth=10;" vertex="1" parent="1">
          <mxGeometry x="-10" y="460" width="100" height="80" as="geometry" />
        </mxCell>
        <mxCell id="F7NxVQR-bwVQOGqpfLus-3" value="" style="rounded=0;whiteSpace=wrap;html=1;fillColor=none;strokeColor=#00FF00;strokeWidth=10;" vertex="1" parent="1">
          <mxGeometry x="80" y="200" width="290" height="60" as="geometry" />
        </mxCell>
      </root>
    </mxGraphModel>
  </diagram>
</mxfile>
